<svg width="186" height="46" viewBox="0 0 186 46" fill="none" xmlns="http://www.w3.org/2000/svg">
<path d="M111.373 25.5284L110.809 27.4593H111.948L111.386 25.5284H111.373ZM113.046 28.159C113.058 28.195 113.071 28.2325 113.085 28.2716C113.099 28.3106 113.111 28.3501 113.123 28.3902C113.135 28.4302 113.145 28.4688 113.153 28.5058C113.161 28.5428 113.164 28.5764 113.164 28.6064C113.164 28.6805 113.153 28.746 113.13 28.8031C113.107 28.8601 113.075 28.9082 113.036 28.9472C112.997 28.9863 112.951 29.0163 112.899 29.0373C112.847 29.0583 112.791 29.0688 112.733 29.0688C112.667 29.0688 112.609 29.0578 112.561 29.0358C112.514 29.0138 112.471 28.9787 112.433 28.9307C112.395 28.8827 112.361 28.8201 112.329 28.743C112.298 28.6659 112.264 28.5713 112.228 28.4592L112.105 28.0779H110.652L110.547 28.4592C110.516 28.5734 110.485 28.6695 110.453 28.7475C110.422 28.8256 110.387 28.8882 110.348 28.9352C110.31 28.9822 110.266 29.0163 110.216 29.0373C110.166 29.0583 110.108 29.0688 110.042 29.0688C109.983 29.0688 109.928 29.0583 109.876 29.0373C109.824 29.0163 109.778 28.9863 109.739 28.9472C109.699 28.9082 109.668 28.8601 109.645 28.8031C109.622 28.746 109.61 28.6805 109.61 28.6064C109.61 28.5764 109.614 28.5428 109.622 28.5058C109.63 28.4688 109.64 28.4302 109.651 28.3902C109.663 28.3501 109.676 28.3106 109.69 28.2716C109.704 28.2325 109.716 28.195 109.728 28.159L110.419 25.9759C110.484 25.7717 110.546 25.591 110.605 25.4339C110.664 25.2767 110.729 25.1441 110.8 25.036C110.871 24.9279 110.952 24.8463 111.045 24.7913C111.137 24.7362 111.249 24.7087 111.381 24.7087C111.504 24.7087 111.609 24.7302 111.697 24.7732C111.784 24.8163 111.863 24.8874 111.933 24.9865C112.003 25.0855 112.07 25.2162 112.133 25.3783C112.196 25.5405 112.266 25.7397 112.343 25.9759L113.046 28.159Z" fill="#FCBA04"/>
<path d="M115.604 28.5974C115.604 28.6634 115.593 28.725 115.572 28.7821C115.55 28.8391 115.521 28.8887 115.485 28.9307C115.448 28.9727 115.405 29.0063 115.356 29.0313C115.307 29.0563 115.255 29.0688 115.198 29.0688C115.142 29.0688 115.089 29.0563 115.041 29.0313C114.992 29.0063 114.95 28.9727 114.914 28.9307C114.878 28.8887 114.849 28.8391 114.829 28.7821C114.808 28.725 114.798 28.6634 114.798 28.5974V25.3182C114.798 25.2201 114.811 25.1331 114.835 25.057C114.86 24.9809 114.894 24.9169 114.935 24.8648C114.977 24.8128 115.027 24.7732 115.083 24.7462C115.139 24.7192 115.2 24.7057 115.265 24.7057C115.32 24.7057 115.373 24.7182 115.426 24.7432C115.478 24.7682 115.528 24.8018 115.576 24.8438C115.624 24.8858 115.67 24.9354 115.714 24.9924C115.759 25.0495 115.801 25.1101 115.843 25.1741L117.357 27.5764V25.1771C117.357 25.1111 117.367 25.0495 117.387 24.9924C117.408 24.9354 117.436 24.8858 117.472 24.8438C117.508 24.8017 117.55 24.7682 117.599 24.7432C117.648 24.7182 117.7 24.7057 117.757 24.7057C117.813 24.7057 117.866 24.7182 117.915 24.7432C117.963 24.7682 118.006 24.8017 118.042 24.8438C118.078 24.8858 118.106 24.9354 118.128 24.9924C118.149 25.0495 118.16 25.1111 118.16 25.1771V28.234C118.16 28.3441 118.155 28.4497 118.144 28.5508C118.134 28.6519 118.113 28.7405 118.08 28.8166C118.048 28.8927 118.001 28.9537 117.942 28.9998C117.882 29.0458 117.802 29.0688 117.703 29.0688C117.65 29.0688 117.598 29.0568 117.548 29.0328C117.497 29.0088 117.448 28.9757 117.401 28.9337C117.354 28.8917 117.309 28.8421 117.264 28.7851C117.22 28.728 117.176 28.6664 117.133 28.6004L115.604 26.168L115.604 28.5974Z" fill="#FCBA04"/>
<path d="M121.526 25.5284L120.961 27.4593H122.1L121.538 25.5284H121.526ZM123.199 28.159C123.211 28.195 123.223 28.2325 123.237 28.2716C123.251 28.3106 123.264 28.3501 123.276 28.3902C123.288 28.4302 123.297 28.4688 123.305 28.5058C123.313 28.5428 123.317 28.5764 123.317 28.6064C123.317 28.6805 123.305 28.746 123.282 28.8031C123.259 28.8601 123.228 28.9082 123.188 28.9472C123.149 28.9863 123.103 29.0163 123.051 29.0373C122.999 29.0583 122.944 29.0688 122.886 29.0688C122.819 29.0688 122.762 29.0578 122.714 29.0358C122.666 29.0138 122.623 28.9787 122.585 28.9307C122.548 28.8827 122.513 28.8201 122.481 28.743C122.45 28.6659 122.416 28.5713 122.38 28.4592L122.257 28.0779H120.804L120.699 28.4592C120.668 28.5734 120.637 28.6695 120.606 28.7475C120.574 28.8256 120.539 28.8882 120.5 28.9352C120.462 28.9822 120.418 29.0163 120.368 29.0373C120.319 29.0583 120.26 29.0688 120.194 29.0688C120.136 29.0688 120.08 29.0583 120.028 29.0373C119.976 29.0163 119.93 28.9863 119.891 28.9472C119.852 28.9082 119.82 28.8601 119.797 28.8031C119.774 28.746 119.763 28.6805 119.763 28.6064C119.763 28.5764 119.767 28.5428 119.774 28.5058C119.782 28.4688 119.792 28.4302 119.804 28.3902C119.816 28.3501 119.829 28.3106 119.842 28.2716C119.856 28.2325 119.869 28.195 119.881 28.159L120.571 25.9759C120.636 25.7717 120.698 25.591 120.757 25.4339C120.816 25.2767 120.881 25.1441 120.952 25.036C121.023 24.9279 121.105 24.8463 121.197 24.7913C121.289 24.7362 121.402 24.7087 121.533 24.7087C121.656 24.7087 121.762 24.7302 121.849 24.7732C121.936 24.8163 122.015 24.8874 122.085 24.9865C122.155 25.0855 122.222 25.2162 122.285 25.3783C122.348 25.5405 122.419 25.7397 122.496 25.9759L123.199 28.159Z" fill="#FCBA04"/>
<path d="M127.206 28.2701C127.252 28.2701 127.296 28.2806 127.338 28.3016C127.38 28.3226 127.416 28.3511 127.447 28.3872C127.478 28.4232 127.502 28.4657 127.52 28.5148C127.538 28.5638 127.547 28.6154 127.547 28.6694C127.547 28.7235 127.538 28.775 127.52 28.8241C127.502 28.8731 127.478 28.9157 127.447 28.9517C127.416 28.9877 127.38 29.0163 127.338 29.0373C127.296 29.0583 127.252 29.0688 127.206 29.0688H125.448C125.356 29.0688 125.279 29.0453 125.217 28.9983C125.156 28.9512 125.107 28.8892 125.07 28.8121C125.033 28.735 125.007 28.6474 124.993 28.5493C124.978 28.4512 124.971 28.3511 124.971 28.249V25.2912C124.971 25.2091 124.983 25.1326 125.008 25.0615C125.033 24.9904 125.067 24.9284 125.11 24.8753C125.152 24.8223 125.202 24.7807 125.26 24.7507C125.317 24.7207 125.379 24.7057 125.446 24.7057C125.512 24.7057 125.574 24.7207 125.632 24.7507C125.689 24.7807 125.739 24.8223 125.783 24.8753C125.827 24.9284 125.861 24.9904 125.886 25.0615C125.911 25.1326 125.923 25.2091 125.923 25.2912L125.926 28.2701H127.206Z" fill="#FCBA04"/>
<path d="M130.107 28.4833C130.107 28.5654 130.095 28.6419 130.07 28.713C130.045 28.784 130.011 28.8461 129.968 28.8992C129.924 28.9522 129.873 28.9938 129.816 29.0238C129.759 29.0538 129.697 29.0688 129.63 29.0688C129.563 29.0688 129.501 29.0538 129.444 29.0238C129.387 28.9938 129.337 28.9522 129.294 28.8992C129.251 28.8461 129.217 28.784 129.193 28.713C129.168 28.6419 129.155 28.5654 129.155 28.4833V25.2912C129.155 25.2091 129.168 25.1326 129.193 25.0615C129.217 24.9904 129.251 24.9284 129.294 24.8753C129.337 24.8223 129.387 24.7807 129.444 24.7507C129.501 24.7207 129.563 24.7057 129.63 24.7057C129.697 24.7057 129.759 24.7207 129.816 24.7507C129.873 24.7807 129.924 24.8223 129.968 24.8753C130.011 24.9284 130.045 24.9904 130.07 25.0615C130.095 25.1326 130.107 25.2091 130.107 25.2912V28.4833Z" fill="#FCBA04"/>
<path d="M132.793 25.8467C132.793 25.9428 132.821 26.0239 132.875 26.09C132.93 26.156 133.001 26.2131 133.09 26.2612C133.178 26.3092 133.277 26.3512 133.389 26.3873C133.5 26.4233 133.612 26.4603 133.725 26.4984C133.906 26.5624 134.071 26.6305 134.219 26.7026C134.367 26.7746 134.493 26.8607 134.598 26.9608C134.704 27.0609 134.785 27.1795 134.842 27.3167C134.9 27.4538 134.928 27.6184 134.928 27.8106C134.928 28.0208 134.893 28.21 134.822 28.3782C134.751 28.5463 134.648 28.6895 134.515 28.8076C134.382 28.9257 134.22 29.0163 134.031 29.0793C133.842 29.1424 133.63 29.1739 133.394 29.1739C133.272 29.1739 133.15 29.1654 133.027 29.1484C132.904 29.1314 132.785 29.1069 132.67 29.0748C132.555 29.0428 132.448 29.0038 132.347 28.9577C132.246 28.9117 132.158 28.8596 132.082 28.8016C132.007 28.7435 131.948 28.68 131.905 28.6109C131.863 28.5418 131.841 28.4683 131.841 28.3902C131.841 28.3401 131.85 28.2911 131.868 28.2431C131.886 28.195 131.909 28.1515 131.937 28.1124C131.966 28.0734 131.997 28.0419 132.032 28.0178C132.067 27.9938 132.102 27.9818 132.136 27.9818C132.167 27.9818 132.197 27.9878 132.226 27.9998C132.255 28.0118 132.285 28.0264 132.315 28.0434C132.345 28.0604 132.375 28.0789 132.407 28.0989C132.439 28.1189 132.472 28.1369 132.508 28.153C132.626 28.215 132.759 28.2711 132.906 28.3211C133.053 28.3712 133.207 28.3962 133.368 28.3962C133.455 28.3962 133.538 28.3867 133.616 28.3677C133.693 28.3486 133.762 28.3196 133.821 28.2806C133.88 28.2416 133.927 28.191 133.961 28.1289C133.995 28.0669 134.012 27.9918 134.012 27.9037C134.012 27.8377 134.002 27.7786 133.981 27.7266C133.961 27.6745 133.933 27.629 133.897 27.5899C133.861 27.5509 133.819 27.5169 133.771 27.4878C133.723 27.4588 133.673 27.4333 133.619 27.4113L133.504 27.3632C133.482 27.3552 133.46 27.3467 133.44 27.3377C133.419 27.3287 133.397 27.3202 133.373 27.3122L133.24 27.2671C133.211 27.2591 133.186 27.2516 133.165 27.2446C133.145 27.2376 133.126 27.2306 133.11 27.2236C133.094 27.2166 133.078 27.2096 133.063 27.2026C133.047 27.1956 133.029 27.1881 133.009 27.18L132.768 27.081C132.612 27.0149 132.478 26.9458 132.367 26.8738C132.256 26.8017 132.165 26.7206 132.095 26.6305C132.025 26.5404 131.973 26.4378 131.94 26.3227C131.907 26.2076 131.89 26.074 131.89 25.9218C131.89 25.7217 131.925 25.5405 131.996 25.3783C132.067 25.2162 132.169 25.078 132.302 24.9639C132.434 24.8498 132.595 24.7617 132.784 24.6997C132.973 24.6376 133.186 24.6066 133.422 24.6066C133.507 24.6066 133.601 24.6131 133.702 24.6261C133.803 24.6391 133.903 24.6586 134.004 24.6847C134.105 24.7107 134.202 24.7442 134.296 24.7853C134.389 24.8263 134.471 24.8744 134.543 24.9294C134.615 24.9845 134.673 25.047 134.716 25.1171C134.76 25.1872 134.782 25.2652 134.782 25.3513C134.782 25.4014 134.774 25.4474 134.758 25.4894C134.741 25.5315 134.719 25.5675 134.692 25.5975C134.665 25.6276 134.633 25.6511 134.596 25.6681C134.559 25.6851 134.521 25.6936 134.482 25.6936C134.43 25.6936 134.383 25.6806 134.341 25.6546C134.26 25.6066 134.185 25.5655 134.116 25.5315C134.047 25.4975 133.978 25.4694 133.909 25.4474C133.841 25.4254 133.77 25.4094 133.698 25.3994C133.625 25.3894 133.545 25.3843 133.458 25.3843C133.376 25.3843 133.295 25.3928 133.215 25.4099C133.136 25.4269 133.065 25.4539 133.002 25.4909C132.94 25.528 132.889 25.5755 132.851 25.6336C132.812 25.6916 132.793 25.7627 132.793 25.8468V25.8467Z" fill="#FCBA04"/>
<path d="M136.562 25.5014C136.512 25.5014 136.465 25.4909 136.421 25.4699C136.376 25.4489 136.337 25.4204 136.304 25.3843C136.271 25.3483 136.244 25.3062 136.225 25.2582C136.205 25.2101 136.195 25.1591 136.195 25.105C136.195 25.051 136.205 24.9994 136.225 24.9504C136.244 24.9013 136.271 24.8588 136.304 24.8228C136.337 24.7867 136.376 24.7582 136.421 24.7372C136.465 24.7162 136.512 24.7057 136.562 24.7057H138.905C138.954 24.7057 139.001 24.7162 139.046 24.7372C139.09 24.7582 139.129 24.7867 139.163 24.8228C139.196 24.8588 139.223 24.9013 139.242 24.9504C139.262 24.9994 139.272 25.051 139.272 25.105C139.272 25.1591 139.262 25.2101 139.242 25.2582C139.223 25.3062 139.196 25.3483 139.163 25.3843C139.129 25.4203 139.09 25.4489 139.046 25.4699C139.001 25.4909 138.954 25.5014 138.905 25.5014H138.217V28.4833C138.217 28.5654 138.205 28.6419 138.18 28.713C138.155 28.784 138.121 28.8461 138.077 28.8992C138.034 28.9522 137.983 28.9938 137.926 29.0238C137.869 29.0538 137.807 29.0688 137.74 29.0688C137.673 29.0688 137.611 29.0538 137.554 29.0238C137.496 28.9938 137.446 28.9522 137.404 28.8992C137.361 28.8461 137.327 28.784 137.302 28.713C137.277 28.6419 137.265 28.5654 137.265 28.4833V25.5014H136.562Z" fill="#FCBA04"/>
<path d="M141.958 25.5284L141.393 27.4593H142.532L141.97 25.5284H141.958ZM143.631 28.159C143.643 28.195 143.655 28.2325 143.669 28.2716C143.683 28.3106 143.696 28.3501 143.708 28.3902C143.72 28.4302 143.729 28.4688 143.737 28.5058C143.745 28.5428 143.749 28.5764 143.749 28.6064C143.749 28.6805 143.737 28.746 143.714 28.8031C143.691 28.8601 143.66 28.9082 143.62 28.9472C143.581 28.9863 143.535 29.0163 143.483 29.0373C143.431 29.0583 143.376 29.0688 143.318 29.0688C143.251 29.0688 143.194 29.0578 143.146 29.0358C143.098 29.0138 143.055 28.9787 143.017 28.9307C142.98 28.8827 142.945 28.8201 142.913 28.743C142.882 28.6659 142.848 28.5713 142.812 28.4592L142.689 28.0779H141.236L141.131 28.4592C141.1 28.5734 141.069 28.6695 141.038 28.7475C141.006 28.8256 140.971 28.8882 140.932 28.9352C140.894 28.9822 140.85 29.0163 140.8 29.0373C140.751 29.0583 140.692 29.0688 140.626 29.0688C140.568 29.0688 140.512 29.0583 140.46 29.0373C140.408 29.0163 140.362 28.9863 140.323 28.9472C140.284 28.9082 140.252 28.8601 140.229 28.8031C140.206 28.746 140.195 28.6805 140.195 28.6064C140.195 28.5764 140.199 28.5428 140.206 28.5058C140.214 28.4688 140.224 28.4302 140.236 28.3902C140.248 28.3501 140.261 28.3106 140.274 28.2716C140.288 28.2325 140.301 28.195 140.313 28.159L141.003 25.9759C141.068 25.7717 141.13 25.591 141.189 25.4339C141.248 25.2767 141.313 25.1441 141.384 25.036C141.455 24.9279 141.537 24.8463 141.629 24.7913C141.721 24.7362 141.834 24.7087 141.965 24.7087C142.088 24.7087 142.194 24.7302 142.281 24.7732C142.368 24.8163 142.447 24.8874 142.517 24.9865C142.587 25.0855 142.654 25.2162 142.717 25.3783C142.78 25.5405 142.851 25.7397 142.928 25.9759L143.631 28.159Z" fill="#FCBA04"/>
<path d="M148.63 29.0688C148.543 29.0688 148.47 29.0478 148.411 29.0058C148.352 28.9637 148.304 28.9092 148.268 28.8421C148.233 28.7751 148.207 28.6995 148.191 28.6154C148.176 28.5313 148.168 28.4473 148.168 28.3632V25.5014C148.168 25.3873 148.174 25.2817 148.186 25.1846C148.198 25.0875 148.225 25.004 148.266 24.9339C148.307 24.8638 148.367 24.8088 148.446 24.7687C148.524 24.7287 148.63 24.7087 148.764 24.7087H150.411C150.461 24.7087 150.507 24.7192 150.551 24.7402C150.595 24.7612 150.633 24.7893 150.665 24.8243C150.698 24.8593 150.723 24.9009 150.742 24.9489C150.761 24.997 150.77 25.048 150.77 25.1021C150.77 25.1561 150.761 25.2067 150.742 25.2537C150.723 25.3008 150.698 25.3418 150.665 25.3768C150.633 25.4119 150.595 25.4394 150.551 25.4594C150.507 25.4794 150.461 25.4894 150.411 25.4894H149.09V26.4623H150.296C150.345 26.4623 150.392 26.4724 150.435 26.4924C150.479 26.5124 150.517 26.5404 150.55 26.5765C150.582 26.6125 150.608 26.654 150.627 26.7011C150.645 26.7481 150.655 26.7987 150.655 26.8527C150.655 26.9068 150.645 26.9573 150.627 27.0044C150.608 27.0514 150.582 27.0925 150.55 27.1275C150.517 27.1625 150.479 27.1901 150.435 27.2101C150.392 27.2301 150.345 27.2401 150.296 27.2401H149.09V28.2911H150.475C150.521 28.2911 150.565 28.3011 150.605 28.3211C150.645 28.3411 150.681 28.3692 150.711 28.4052C150.742 28.4412 150.766 28.4828 150.783 28.5298C150.8 28.5769 150.809 28.6274 150.809 28.6815C150.809 28.7355 150.8 28.7861 150.783 28.8331C150.766 28.8802 150.742 28.9212 150.711 28.9562C150.681 28.9913 150.645 29.0188 150.605 29.0388C150.565 29.0588 150.521 29.0688 150.475 29.0688H148.63Z" fill="#FCBA04"/>
<path d="M110.08 37.1164C109.988 37.1164 109.911 37.0943 109.85 37.0503C109.79 37.0062 109.741 36.9482 109.705 36.8761C109.669 36.8041 109.645 36.7225 109.631 36.6314C109.617 36.5403 109.61 36.4467 109.61 36.3506V33.5279C109.61 33.3938 109.622 33.2777 109.644 33.1796C109.666 33.0815 109.703 33.0014 109.754 32.9394C109.805 32.8773 109.873 32.8313 109.956 32.8012C110.039 32.7712 110.141 32.7562 110.262 32.7562H110.899C111.598 32.7562 112.126 32.9369 112.482 33.2982C112.838 33.6596 113.016 34.2156 113.016 34.9663C113.016 35.3326 112.967 35.651 112.869 35.9212C112.772 36.1915 112.634 36.4152 112.455 36.5924C112.276 36.7695 112.061 36.9011 111.81 36.9872C111.558 37.0733 111.279 37.1163 110.973 37.1163L110.08 37.1164ZM110.55 36.4437H110.901C111.096 36.4437 111.264 36.4177 111.404 36.3657C111.544 36.3136 111.66 36.2245 111.752 36.0984C111.843 35.9723 111.911 35.8156 111.955 35.6284C111.998 35.4413 112.02 35.2115 112.02 34.9393C112.02 34.4328 111.93 34.0554 111.751 33.8072C111.571 33.559 111.295 33.4349 110.924 33.4349H110.55L110.55 36.4437Z" fill="#FCBA04"/>
<path d="M115.193 37.1164C115.106 37.1164 115.033 37.0953 114.974 37.0533C114.915 37.0113 114.867 36.9567 114.831 36.8896C114.796 36.8226 114.77 36.747 114.755 36.6629C114.739 36.5788 114.731 36.4948 114.731 36.4107V33.549C114.731 33.4349 114.737 33.3292 114.749 33.2322C114.761 33.1351 114.788 33.0515 114.829 32.9814C114.87 32.9113 114.93 32.8563 115.009 32.8163C115.087 32.7762 115.193 32.7562 115.327 32.7562H116.974C117.024 32.7562 117.07 32.7667 117.114 32.7877C117.158 32.8088 117.196 32.8368 117.228 32.8718C117.261 32.9069 117.286 32.9484 117.305 32.9964C117.324 33.0445 117.333 33.0955 117.333 33.1496C117.333 33.2036 117.324 33.2542 117.305 33.3012C117.286 33.3483 117.261 33.3893 117.228 33.4244C117.196 33.4594 117.158 33.4869 117.114 33.5069C117.07 33.5269 117.024 33.5369 116.974 33.5369H115.653V34.5099H116.859C116.908 34.5099 116.955 34.5199 116.999 34.5399C117.042 34.5599 117.08 34.5879 117.113 34.624C117.145 34.66 117.171 34.7015 117.19 34.7486C117.209 34.7956 117.218 34.8462 117.218 34.9002C117.218 34.9543 117.209 35.0048 117.19 35.0519C117.171 35.0989 117.145 35.14 117.113 35.175C117.08 35.2101 117.042 35.2376 116.999 35.2576C116.955 35.2776 116.908 35.2876 116.859 35.2876H115.653V36.3386H117.038C117.085 36.3386 117.128 36.3486 117.168 36.3687C117.208 36.3887 117.244 36.4167 117.274 36.4527C117.305 36.4888 117.329 36.5303 117.346 36.5774C117.363 36.6244 117.372 36.6749 117.372 36.729C117.372 36.7831 117.363 36.8336 117.346 36.8806C117.329 36.9277 117.305 36.9687 117.274 37.0038C117.244 37.0388 117.208 37.0663 117.168 37.0863C117.128 37.1063 117.085 37.1164 117.038 37.1164H115.193Z" fill="#FCBA04"/>
<path d="M119.878 33.8943C119.878 33.9904 119.905 34.0714 119.96 34.1375C120.015 34.2036 120.086 34.2606 120.174 34.3087C120.263 34.3567 120.362 34.3988 120.473 34.4348C120.585 34.4708 120.697 34.5079 120.81 34.5459C120.991 34.61 121.156 34.678 121.304 34.7501C121.452 34.8222 121.578 34.9082 121.683 35.0083C121.789 35.1084 121.87 35.2271 121.927 35.3642C121.984 35.5013 122.013 35.666 122.013 35.8582C122.013 36.0684 121.978 36.2575 121.907 36.4257C121.836 36.5939 121.733 36.737 121.6 36.8551C121.467 36.9732 121.305 37.0638 121.116 37.1269C120.927 37.1899 120.715 37.2215 120.479 37.2215C120.357 37.2215 120.235 37.2129 120.112 37.1959C119.988 37.1789 119.87 37.1544 119.755 37.1224C119.64 37.0903 119.533 37.0513 119.432 37.0052C119.331 36.9592 119.243 36.9072 119.167 36.8491C119.092 36.791 119.033 36.7275 118.99 36.6584C118.947 36.5894 118.926 36.5158 118.926 36.4377C118.926 36.3877 118.935 36.3386 118.953 36.2906C118.971 36.2425 118.994 36.199 119.022 36.1599C119.051 36.1209 119.082 36.0894 119.117 36.0654C119.152 36.0413 119.187 36.0293 119.221 36.0293C119.252 36.0293 119.282 36.0353 119.311 36.0474C119.34 36.0594 119.37 36.0739 119.4 36.0909C119.429 36.1079 119.46 36.1264 119.492 36.1464C119.524 36.1665 119.557 36.1845 119.593 36.2005C119.711 36.2626 119.844 36.3186 119.991 36.3687C120.138 36.4187 120.292 36.4437 120.453 36.4437C120.54 36.4437 120.623 36.4342 120.701 36.4152C120.778 36.3962 120.847 36.3671 120.906 36.3281C120.965 36.2891 121.011 36.2385 121.046 36.1765C121.08 36.1144 121.097 36.0393 121.097 35.9513C121.097 35.8852 121.087 35.8261 121.066 35.7741C121.046 35.722 121.017 35.6765 120.982 35.6374C120.946 35.5984 120.904 35.5644 120.856 35.5354C120.808 35.5063 120.757 35.4808 120.704 35.4588L120.589 35.4107C120.567 35.4027 120.545 35.3942 120.525 35.3852C120.504 35.3762 120.482 35.3677 120.458 35.3597L120.325 35.3147C120.296 35.3066 120.271 35.2991 120.25 35.2921C120.23 35.2851 120.211 35.2781 120.195 35.2711C120.179 35.2641 120.163 35.2571 120.148 35.2501C120.132 35.2431 120.114 35.2356 120.094 35.2276L119.852 35.1285C119.697 35.0624 119.563 34.9933 119.452 34.9213C119.341 34.8492 119.25 34.7681 119.18 34.6781C119.11 34.588 119.058 34.4854 119.025 34.3703C118.992 34.2551 118.975 34.1215 118.975 33.9694C118.975 33.7692 119.01 33.588 119.081 33.4259C119.152 33.2637 119.254 33.1256 119.387 33.0115C119.519 32.8974 119.68 32.8093 119.869 32.7472C120.058 32.6851 120.271 32.6541 120.507 32.6541C120.592 32.6541 120.686 32.6606 120.787 32.6737C120.887 32.6867 120.988 32.7062 121.089 32.7322C121.19 32.7582 121.287 32.7918 121.381 32.8328C121.474 32.8738 121.556 32.9219 121.628 32.9769C121.7 33.032 121.758 33.0945 121.801 33.1646C121.845 33.2347 121.867 33.3128 121.867 33.3988C121.867 33.4489 121.859 33.4949 121.842 33.537C121.826 33.579 121.804 33.615 121.777 33.6451C121.75 33.6751 121.718 33.6986 121.681 33.7156C121.644 33.7327 121.606 33.7412 121.567 33.7412C121.515 33.7412 121.468 33.7282 121.425 33.7021C121.345 33.6541 121.27 33.613 121.201 33.579C121.132 33.545 121.063 33.517 120.994 33.4949C120.926 33.4729 120.855 33.4569 120.783 33.4469C120.71 33.4369 120.63 33.4319 120.543 33.4319C120.461 33.4319 120.38 33.4404 120.3 33.4574C120.221 33.4744 120.15 33.5014 120.087 33.5385C120.025 33.5755 119.974 33.6231 119.936 33.6811C119.897 33.7392 119.878 33.8102 119.878 33.8943V33.8943Z" fill="#FCBA04"/>
<path d="M124.165 37.1164C124.078 37.1164 124.005 37.0953 123.946 37.0533C123.887 37.0113 123.839 36.9567 123.803 36.8896C123.767 36.8226 123.742 36.747 123.726 36.6629C123.711 36.5788 123.703 36.4948 123.703 36.4107V33.549C123.703 33.4349 123.709 33.3292 123.721 33.2322C123.733 33.1351 123.76 33.0515 123.801 32.9814C123.842 32.9113 123.902 32.8563 123.98 32.8163C124.059 32.7762 124.165 32.7562 124.299 32.7562H125.946C125.996 32.7562 126.042 32.7667 126.086 32.7877C126.13 32.8088 126.168 32.8368 126.2 32.8718C126.233 32.9069 126.258 32.9484 126.277 32.9964C126.296 33.0445 126.305 33.0955 126.305 33.1496C126.305 33.2036 126.296 33.2542 126.277 33.3012C126.258 33.3483 126.233 33.3893 126.2 33.4244C126.168 33.4594 126.13 33.4869 126.086 33.5069C126.042 33.5269 125.996 33.5369 125.946 33.5369H124.625V34.5099H125.831C125.88 34.5099 125.927 34.5199 125.97 34.5399C126.014 34.5599 126.052 34.5879 126.085 34.624C126.117 34.66 126.143 34.7015 126.162 34.7486C126.18 34.7956 126.19 34.8462 126.19 34.9002C126.19 34.9543 126.18 35.0048 126.162 35.0519C126.143 35.0989 126.117 35.14 126.085 35.175C126.052 35.2101 126.014 35.2376 125.97 35.2576C125.927 35.2776 125.88 35.2876 125.831 35.2876H124.625V36.3386H126.01C126.056 36.3386 126.1 36.3486 126.14 36.3687C126.18 36.3887 126.216 36.4167 126.246 36.4527C126.277 36.4888 126.301 36.5303 126.318 36.5774C126.335 36.6244 126.344 36.6749 126.344 36.729C126.344 36.7831 126.335 36.8336 126.318 36.8806C126.301 36.9277 126.277 36.9687 126.246 37.0038C126.216 37.0388 126.18 37.0663 126.14 37.0863C126.1 37.1063 126.056 37.1164 126.01 37.1164H124.165Z" fill="#FCBA04"/>
<path d="M128.842 36.6449C128.842 36.711 128.832 36.7725 128.81 36.8296C128.789 36.8867 128.76 36.9362 128.723 36.9782C128.686 37.0203 128.643 37.0538 128.595 37.0788C128.546 37.1039 128.493 37.1164 128.437 37.1164C128.38 37.1164 128.328 37.1039 128.279 37.0788C128.23 37.0538 128.188 37.0203 128.152 36.9782C128.116 36.9362 128.088 36.8867 128.067 36.8296C128.047 36.7725 128.037 36.711 128.037 36.6449V33.3658C128.037 33.2677 128.049 33.1806 128.074 33.1046C128.099 33.0285 128.132 32.9644 128.174 32.9124C128.216 32.8603 128.265 32.8208 128.321 32.7937C128.378 32.7667 128.439 32.7532 128.504 32.7532C128.558 32.7532 128.612 32.7657 128.664 32.7907C128.716 32.8158 128.766 32.8493 128.814 32.8913C128.862 32.9334 128.908 32.9829 128.953 33.04C128.997 33.097 129.04 33.1576 129.081 33.2216L130.595 35.6239V33.2247C130.595 33.1586 130.605 33.097 130.626 33.04C130.646 32.9829 130.675 32.9334 130.71 32.8913C130.746 32.8493 130.789 32.8158 130.837 32.7907C130.886 32.7657 130.939 32.7532 130.995 32.7532C131.052 32.7532 131.104 32.7657 131.153 32.7907C131.202 32.8158 131.244 32.8493 131.28 32.8913C131.316 32.9334 131.345 32.9829 131.366 33.04C131.387 33.097 131.398 33.1586 131.398 33.2247V36.2816C131.398 36.3917 131.393 36.4973 131.383 36.5984C131.372 36.6995 131.351 36.788 131.319 36.8641C131.286 36.9402 131.24 37.0013 131.18 37.0473C131.12 37.0933 131.041 37.1164 130.941 37.1164C130.888 37.1164 130.837 37.1044 130.786 37.0803C130.736 37.0563 130.687 37.0233 130.64 36.9812C130.593 36.9392 130.547 36.8896 130.503 36.8326C130.458 36.7755 130.414 36.714 130.372 36.6479L128.842 34.2156V36.6449Z" fill="#FCBA04"/>
<path d="M134.697 36.3026H134.71L135.488 33.2457C135.508 33.1616 135.536 33.089 135.572 33.028C135.608 32.9669 135.648 32.9163 135.692 32.8763C135.735 32.8363 135.781 32.8062 135.83 32.7862C135.879 32.7662 135.927 32.7562 135.975 32.7562C136.025 32.7562 136.072 32.7667 136.118 32.7877C136.163 32.8088 136.203 32.8393 136.238 32.8793C136.273 32.9194 136.301 32.9694 136.322 33.0295C136.342 33.0895 136.352 33.1586 136.352 33.2367C136.352 33.3268 136.339 33.4229 136.311 33.5249L135.644 35.9362C135.588 36.1384 135.533 36.3131 135.481 36.4602C135.429 36.6074 135.369 36.73 135.3 36.8281C135.232 36.9262 135.15 36.9987 135.054 37.0458C134.958 37.0928 134.839 37.1164 134.697 37.1164C134.567 37.1164 134.458 37.0993 134.369 37.0653C134.28 37.0313 134.202 36.9722 134.134 36.8881C134.066 36.8041 134.005 36.692 133.951 36.5518C133.896 36.4117 133.839 36.2355 133.779 36.0233L133.063 33.4859C133.051 33.4459 133.043 33.4078 133.038 33.3718C133.034 33.3358 133.032 33.3007 133.032 33.2667C133.032 33.1886 133.043 33.1185 133.067 33.0565C133.09 32.9944 133.121 32.9409 133.16 32.8958C133.2 32.8508 133.244 32.8163 133.294 32.7923C133.343 32.7682 133.395 32.7562 133.45 32.7562C133.496 32.7562 133.543 32.7657 133.59 32.7847C133.637 32.8038 133.682 32.8333 133.723 32.8733C133.765 32.9134 133.803 32.9649 133.838 33.028C133.872 33.091 133.9 33.1666 133.922 33.2547L134.697 36.3026Z" fill="#FCBA04"/>
<path d="M138.682 34.9393C138.682 35.4358 138.749 35.8106 138.884 36.0639C139.019 36.3171 139.231 36.4437 139.518 36.4437C139.8 36.4437 140.011 36.3176 140.149 36.0654C140.288 35.8131 140.357 35.4378 140.357 34.9393C140.357 34.6991 140.34 34.4854 140.307 34.2982C140.274 34.111 140.223 33.9534 140.154 33.8252C140.086 33.6971 139.999 33.5995 139.894 33.5325C139.789 33.4654 139.663 33.4318 139.518 33.4318C139.374 33.4318 139.25 33.4654 139.145 33.5325C139.039 33.5995 138.953 33.6971 138.884 33.8252C138.816 33.9533 138.765 34.111 138.732 34.2982C138.698 34.4854 138.682 34.6991 138.682 34.9393H138.682ZM137.683 34.9393C137.683 34.609 137.721 34.3037 137.798 34.0234C137.874 33.7431 137.988 33.5019 138.14 33.2997C138.292 33.0975 138.483 32.9394 138.712 32.8253C138.942 32.7112 139.21 32.6541 139.518 32.6541C139.817 32.6541 140.082 32.7092 140.311 32.8193C140.54 32.9294 140.732 33.085 140.886 33.2862C141.04 33.4874 141.156 33.7281 141.235 34.0084C141.313 34.2887 141.353 34.599 141.353 34.9393C141.353 35.2736 141.314 35.5809 141.237 35.8612C141.16 36.1414 141.045 36.3822 140.891 36.5834C140.737 36.7846 140.545 36.9412 140.316 37.0533C140.087 37.1654 139.821 37.2215 139.518 37.2215C139.222 37.2215 138.96 37.1674 138.732 37.0593C138.503 36.9512 138.311 36.7976 138.155 36.5984C138 36.3992 137.882 36.1594 137.803 35.8792C137.723 35.5989 137.683 35.2856 137.683 34.9393V34.9393Z" fill="#FCBA04"/>
<path d="M145.306 36.3176C145.353 36.3176 145.397 36.3281 145.438 36.3491C145.48 36.3702 145.517 36.3987 145.548 36.4347C145.578 36.4707 145.603 36.5133 145.621 36.5623C145.639 36.6114 145.648 36.6629 145.648 36.717C145.648 36.771 145.639 36.8226 145.621 36.8716C145.603 36.9207 145.578 36.9632 145.548 36.9993C145.517 37.0353 145.48 37.0638 145.438 37.0848C145.397 37.1059 145.353 37.1164 145.306 37.1164H143.549C143.456 37.1164 143.379 37.0928 143.318 37.0458C143.256 36.9988 143.207 36.9367 143.17 36.8596C143.133 36.7825 143.108 36.695 143.093 36.5969C143.079 36.4988 143.071 36.3987 143.071 36.2966V33.3388C143.071 33.2567 143.084 33.1801 143.108 33.1091C143.133 33.038 143.167 32.9759 143.21 32.9229C143.253 32.8698 143.303 32.8283 143.36 32.7982C143.417 32.7682 143.479 32.7532 143.546 32.7532C143.613 32.7532 143.675 32.7682 143.732 32.7982C143.789 32.8283 143.84 32.8698 143.883 32.9229C143.927 32.9759 143.961 33.038 143.986 33.1091C144.011 33.1801 144.023 33.2567 144.023 33.3388L144.026 36.3176H145.306Z" fill="#FCBA04"/>
<path d="M148.113 36.3026H148.126L148.903 33.2457C148.924 33.1616 148.952 33.089 148.988 33.028C149.024 32.9669 149.063 32.9163 149.107 32.8763C149.151 32.8363 149.197 32.8062 149.246 32.7862C149.294 32.7662 149.343 32.7562 149.391 32.7562C149.44 32.7562 149.488 32.7667 149.533 32.7877C149.578 32.8088 149.619 32.8393 149.654 32.8793C149.689 32.9194 149.717 32.9694 149.737 33.0295C149.758 33.0895 149.768 33.1586 149.768 33.2367C149.768 33.3268 149.754 33.4229 149.727 33.5249L149.06 35.9362C149.003 36.1384 148.949 36.3131 148.897 36.4602C148.844 36.6074 148.784 36.73 148.716 36.8281C148.647 36.9262 148.565 36.9987 148.469 37.0458C148.374 37.0928 148.255 37.1164 148.113 37.1164C147.983 37.1164 147.873 37.0993 147.784 37.0653C147.695 37.0313 147.617 36.9722 147.549 36.8881C147.482 36.8041 147.421 36.692 147.366 36.5518C147.311 36.4117 147.254 36.2355 147.194 36.0233L146.478 33.4859C146.466 33.4459 146.458 33.4078 146.454 33.3718C146.45 33.3358 146.447 33.3007 146.447 33.2667C146.447 33.1886 146.459 33.1185 146.482 33.0565C146.505 32.9944 146.536 32.9409 146.576 32.8958C146.615 32.8508 146.659 32.8163 146.709 32.7923C146.759 32.7682 146.811 32.7562 146.866 32.7562C146.912 32.7562 146.958 32.7657 147.005 32.7847C147.053 32.8038 147.097 32.8333 147.139 32.8733C147.181 32.9134 147.219 32.9649 147.253 33.028C147.287 33.091 147.316 33.1666 147.338 33.2547L148.113 36.3026Z" fill="#FCBA04"/>
<path d="M151.953 37.1164C151.866 37.1164 151.793 37.0953 151.734 37.0533C151.675 37.0113 151.627 36.9567 151.592 36.8896C151.556 36.8226 151.53 36.747 151.515 36.6629C151.499 36.5788 151.491 36.4948 151.491 36.4107V33.549C151.491 33.4349 151.497 33.3292 151.509 33.2322C151.521 33.1351 151.548 33.0515 151.589 32.9814C151.63 32.9113 151.69 32.8563 151.769 32.8163C151.847 32.7762 151.953 32.7562 152.087 32.7562H153.734C153.784 32.7562 153.83 32.7667 153.874 32.7877C153.918 32.8088 153.956 32.8368 153.988 32.8718C154.021 32.9069 154.046 32.9484 154.065 32.9964C154.084 33.0445 154.093 33.0955 154.093 33.1496C154.093 33.2036 154.084 33.2542 154.065 33.3012C154.046 33.3483 154.021 33.3893 153.988 33.4244C153.956 33.4594 153.918 33.4869 153.874 33.5069C153.83 33.5269 153.784 33.5369 153.734 33.5369H152.413V34.5099H153.619C153.668 34.5099 153.715 34.5199 153.759 34.5399C153.802 34.5599 153.84 34.5879 153.873 34.624C153.905 34.66 153.931 34.7015 153.95 34.7486C153.969 34.7956 153.978 34.8462 153.978 34.9002C153.978 34.9543 153.969 35.0048 153.95 35.0519C153.931 35.0989 153.905 35.14 153.873 35.175C153.84 35.2101 153.802 35.2376 153.759 35.2576C153.715 35.2776 153.668 35.2876 153.619 35.2876H152.413V36.3386H153.798C153.845 36.3386 153.888 36.3486 153.928 36.3687C153.968 36.3887 154.004 36.4167 154.034 36.4527C154.065 36.4888 154.089 36.5303 154.106 36.5774C154.123 36.6244 154.132 36.6749 154.132 36.729C154.132 36.7831 154.123 36.8336 154.106 36.8806C154.089 36.9277 154.065 36.9687 154.034 37.0038C154.004 37.0388 153.968 37.0663 153.928 37.0863C153.888 37.1063 153.845 37.1164 153.798 37.1164H151.953Z" fill="#FCBA04"/>
<path d="M156.292 37.1164C156.199 37.1164 156.123 37.0943 156.062 37.0503C156.001 37.0062 155.953 36.9482 155.917 36.8761C155.881 36.8041 155.856 36.7225 155.843 36.6314C155.829 36.5403 155.822 36.4467 155.822 36.3506V33.5279C155.822 33.3938 155.833 33.2777 155.856 33.1796C155.878 33.0815 155.915 33.0014 155.966 32.9394C156.017 32.8773 156.084 32.8313 156.167 32.8012C156.25 32.7712 156.352 32.7562 156.474 32.7562H157.11C157.81 32.7562 158.338 32.9369 158.694 33.2982C159.049 33.6596 159.227 34.2156 159.227 34.9663C159.227 35.3326 159.179 35.651 159.081 35.9212C158.984 36.1915 158.845 36.4152 158.667 36.5924C158.488 36.7695 158.273 36.9011 158.021 36.9872C157.77 37.0733 157.491 37.1163 157.185 37.1163L156.292 37.1164ZM156.761 36.4437H157.113C157.308 36.4437 157.476 36.4177 157.616 36.3657C157.756 36.3136 157.872 36.2245 157.964 36.0984C158.055 35.9723 158.123 35.8156 158.166 35.6284C158.21 35.4413 158.232 35.2115 158.232 34.9393C158.232 34.4328 158.142 34.0554 157.962 33.8072C157.783 33.559 157.507 33.4349 157.136 33.4349H156.761L156.761 36.4437Z" fill="#FCBA04"/>
<path d="M161.705 34.9393C161.705 35.4358 161.773 35.8106 161.908 36.0639C162.043 36.3171 162.254 36.4437 162.542 36.4437C162.824 36.4437 163.035 36.3176 163.173 36.0654C163.312 35.8131 163.381 35.4378 163.381 34.9393C163.381 34.6991 163.364 34.4854 163.331 34.2982C163.298 34.111 163.247 33.9534 163.178 33.8252C163.11 33.6971 163.023 33.5995 162.918 33.5325C162.813 33.4654 162.687 33.4318 162.542 33.4318C162.398 33.4318 162.274 33.4654 162.168 33.5325C162.063 33.5995 161.976 33.6971 161.908 33.8252C161.84 33.9533 161.789 34.111 161.755 34.2982C161.722 34.4854 161.705 34.6991 161.705 34.9393H161.705ZM160.707 34.9393C160.707 34.609 160.745 34.3037 160.821 34.0234C160.897 33.7431 161.012 33.5019 161.164 33.2997C161.316 33.0975 161.507 32.9394 161.736 32.8253C161.965 32.7112 162.234 32.6541 162.542 32.6541C162.841 32.6541 163.106 32.7092 163.335 32.8193C163.564 32.9294 163.756 33.085 163.91 33.2862C164.064 33.4874 164.18 33.7281 164.259 34.0084C164.337 34.2887 164.377 34.599 164.377 34.9393C164.377 35.2736 164.338 35.5809 164.261 35.8612C164.184 36.1414 164.069 36.3822 163.915 36.5834C163.761 36.7846 163.569 36.9412 163.34 37.0533C163.111 37.1654 162.845 37.2215 162.542 37.2215C162.246 37.2215 161.984 37.1674 161.755 37.0593C161.527 36.9512 161.335 36.7976 161.179 36.5984C161.024 36.3992 160.906 36.1594 160.826 35.8792C160.747 35.5989 160.707 35.2856 160.707 34.9393L160.707 34.9393Z" fill="#FCBA04"/>
<path d="M167.055 36.5308C167.055 36.6129 167.042 36.6895 167.018 36.7605C166.993 36.8316 166.959 36.8937 166.915 36.9467C166.871 36.9998 166.821 37.0413 166.763 37.0713C166.706 37.1014 166.644 37.1164 166.577 37.1164C166.511 37.1164 166.449 37.1014 166.391 37.0713C166.334 37.0413 166.284 36.9998 166.241 36.9467C166.199 36.8937 166.165 36.8316 166.14 36.7605C166.115 36.6895 166.103 36.6129 166.103 36.5308V33.3057C166.103 33.2136 166.119 33.1331 166.15 33.064C166.182 32.9949 166.224 32.9374 166.277 32.8913C166.33 32.8453 166.392 32.8108 166.463 32.7877C166.534 32.7647 166.609 32.7532 166.688 32.7532H167.717C167.907 32.7532 168.089 32.7677 168.263 32.7968C168.438 32.8258 168.591 32.8803 168.724 32.9604C168.857 33.0405 168.963 33.1516 169.042 33.2937C169.122 33.4359 169.161 33.621 169.161 33.8493C169.161 33.9734 169.147 34.091 169.118 34.2021C169.089 34.3132 169.042 34.4133 168.977 34.5024C168.912 34.5915 168.827 34.6675 168.721 34.7306C168.616 34.7937 168.487 34.8402 168.335 34.8702V34.8823C168.445 34.8983 168.538 34.9218 168.616 34.9528C168.694 34.9839 168.76 35.0249 168.815 35.0759C168.87 35.127 168.914 35.1885 168.949 35.2606C168.983 35.3327 169.011 35.4178 169.033 35.5159C169.055 35.614 169.073 35.7255 169.087 35.8507C169.101 35.9758 169.114 36.1174 169.126 36.2756C169.129 36.3196 169.132 36.3622 169.133 36.4032C169.135 36.4442 169.136 36.4848 169.136 36.5248C169.136 36.6109 169.129 36.69 169.115 36.762C169.102 36.8341 169.078 36.8962 169.043 36.9482C169.009 37.0003 168.962 37.0408 168.902 37.0698C168.842 37.0989 168.765 37.1134 168.671 37.1134C168.586 37.1134 168.514 37.0904 168.457 37.0443C168.4 36.9983 168.352 36.9352 168.315 36.8551C168.277 36.7751 168.248 36.6825 168.229 36.5774C168.209 36.4723 168.193 36.3597 168.181 36.2396C168.164 36.0654 168.147 35.9197 168.129 35.8026C168.111 35.6855 168.082 35.5909 168.043 35.5189C168.003 35.4468 167.947 35.3958 167.875 35.3657C167.802 35.3357 167.702 35.3207 167.576 35.3207H167.055L167.055 36.5308ZM167.45 34.624C167.542 34.624 167.635 34.6175 167.727 34.6045C167.819 34.5915 167.903 34.5644 167.977 34.5234C168.052 34.4824 168.112 34.4223 168.158 34.3432C168.204 34.2641 168.227 34.1586 168.227 34.0264C168.227 33.8743 168.205 33.7602 168.161 33.6841C168.116 33.608 168.057 33.551 167.984 33.5129C167.91 33.4749 167.825 33.4514 167.728 33.4424C167.632 33.4334 167.531 33.4288 167.427 33.4288H167.039V34.624H167.45Z" fill="#FCBA04"/>
<path d="M174.153 37.1164C174.061 37.1164 173.984 37.0943 173.924 37.0503C173.863 37.0062 173.815 36.9482 173.779 36.8761C173.743 36.8041 173.718 36.7225 173.704 36.6314C173.691 36.5403 173.684 36.4467 173.684 36.3506V33.5279C173.684 33.3938 173.695 33.2777 173.717 33.1796C173.739 33.0815 173.776 33.0014 173.827 32.9394C173.879 32.8773 173.946 32.8313 174.029 32.8012C174.112 32.7712 174.214 32.7562 174.336 32.7562H174.972C175.672 32.7562 176.199 32.9369 176.555 33.2982C176.911 33.6596 177.089 34.2156 177.089 34.9663C177.089 35.3326 177.04 35.651 176.943 35.9212C176.845 36.1915 176.707 36.4152 176.528 36.5924C176.349 36.7695 176.134 36.9011 175.883 36.9872C175.631 37.0733 175.353 37.1163 175.046 37.1163L174.153 37.1164ZM174.623 36.4437H174.975C175.17 36.4437 175.337 36.4177 175.477 36.3657C175.618 36.3136 175.734 36.2245 175.825 36.0984C175.917 35.9723 175.984 35.8156 176.028 35.6284C176.072 35.4413 176.093 35.2115 176.093 34.9393C176.093 34.4328 176.004 34.0554 175.824 33.8072C175.644 33.559 175.369 33.4349 174.998 33.4349H174.623V36.4437Z" fill="#FCBA04"/>
<path d="M179.267 37.1164C179.179 37.1164 179.106 37.0953 179.047 37.0533C178.988 37.0113 178.941 36.9567 178.905 36.8896C178.869 36.8226 178.843 36.747 178.828 36.6629C178.813 36.5788 178.805 36.4948 178.805 36.4107V33.549C178.805 33.4349 178.811 33.3292 178.823 33.2322C178.835 33.1351 178.861 33.0515 178.902 32.9814C178.943 32.9113 179.003 32.8563 179.082 32.8163C179.161 32.7762 179.267 32.7562 179.4 32.7562H181.048C181.097 32.7562 181.144 32.7667 181.187 32.7877C181.231 32.8088 181.269 32.8368 181.302 32.8718C181.334 32.9069 181.36 32.9484 181.379 32.9964C181.397 33.0445 181.407 33.0955 181.407 33.1496C181.407 33.2036 181.397 33.2542 181.379 33.3012C181.36 33.3483 181.334 33.3893 181.302 33.4244C181.269 33.4594 181.231 33.4869 181.187 33.5069C181.144 33.5269 181.097 33.5369 181.048 33.5369H179.726V34.5099H180.932C180.982 34.5099 181.028 34.5199 181.072 34.5399C181.116 34.5599 181.154 34.5879 181.186 34.624C181.219 34.66 181.244 34.7015 181.263 34.7486C181.282 34.7956 181.291 34.8462 181.291 34.9002C181.291 34.9543 181.282 35.0048 181.263 35.0519C181.244 35.0989 181.219 35.14 181.186 35.175C181.154 35.2101 181.116 35.2376 181.072 35.2576C181.028 35.2776 180.982 35.2876 180.932 35.2876H179.726V36.3386H181.112C181.158 36.3386 181.201 36.3486 181.241 36.3687C181.282 36.3887 181.317 36.4167 181.348 36.4527C181.379 36.4888 181.403 36.5303 181.42 36.5774C181.437 36.6244 181.445 36.6749 181.445 36.729C181.445 36.7831 181.437 36.8336 181.42 36.8806C181.403 36.9277 181.379 36.9687 181.348 37.0038C181.317 37.0388 181.282 37.0663 181.241 37.0863C181.201 37.1063 181.158 37.1164 181.112 37.1164H179.267Z" fill="#FCBA04"/>
<path d="M110.562 41.9418C110.562 42.0379 110.59 42.119 110.644 42.185C110.699 42.2511 110.771 42.3082 110.859 42.3562C110.947 42.4043 111.047 42.4463 111.158 42.4823C111.269 42.5184 111.381 42.5554 111.494 42.5934C111.675 42.6575 111.84 42.7256 111.988 42.7976C112.136 42.8697 112.262 42.9558 112.368 43.0559C112.473 43.156 112.554 43.2746 112.611 43.4117C112.669 43.5489 112.697 43.7135 112.697 43.9057C112.697 44.1159 112.662 44.3051 112.591 44.4732C112.52 44.6414 112.418 44.7845 112.284 44.9026C112.151 45.0208 111.99 45.1113 111.801 45.1744C111.611 45.2375 111.399 45.269 111.163 45.269C111.041 45.269 110.919 45.2605 110.796 45.2435C110.673 45.2265 110.554 45.2019 110.439 45.1699C110.325 45.1379 110.217 45.0988 110.116 45.0528C110.015 45.0067 109.927 44.9547 109.852 44.8966C109.776 44.8386 109.717 44.775 109.675 44.706C109.632 44.6369 109.61 44.5633 109.61 44.4852C109.61 44.4352 109.619 44.3862 109.637 44.3381C109.655 44.2901 109.678 44.2465 109.707 44.2075C109.735 44.1684 109.766 44.1369 109.802 44.1129C109.837 44.0889 109.871 44.0769 109.905 44.0769C109.936 44.0769 109.966 44.0829 109.995 44.0949C110.024 44.1069 110.054 44.1214 110.084 44.1384C110.114 44.1555 110.145 44.174 110.176 44.194C110.208 44.214 110.242 44.232 110.278 44.248C110.396 44.3101 110.528 44.3661 110.675 44.4162C110.822 44.4662 110.976 44.4913 111.137 44.4913C111.224 44.4913 111.307 44.4817 111.385 44.4627C111.463 44.4437 111.531 44.4147 111.59 44.3757C111.649 44.3366 111.696 44.2861 111.73 44.224C111.764 44.1619 111.781 44.0869 111.781 43.9988C111.781 43.9327 111.771 43.8737 111.75 43.8216C111.73 43.7696 111.702 43.724 111.666 43.685C111.63 43.646 111.588 43.6119 111.54 43.5829C111.492 43.5539 111.442 43.5284 111.389 43.5063L111.273 43.4583C111.251 43.4503 111.23 43.4418 111.209 43.4328C111.188 43.4237 111.166 43.4152 111.142 43.4072L111.009 43.3622C110.98 43.3542 110.955 43.3467 110.934 43.3397C110.914 43.3327 110.896 43.3257 110.879 43.3186C110.863 43.3116 110.847 43.3046 110.832 43.2976C110.816 43.2906 110.798 43.2831 110.778 43.2751L110.537 43.176C110.381 43.11 110.248 43.0409 110.136 42.9688C110.025 42.8967 109.935 42.8157 109.864 42.7256C109.794 42.6355 109.743 42.5329 109.709 42.4178C109.676 42.3027 109.659 42.169 109.659 42.0169C109.659 41.8167 109.695 41.6355 109.766 41.4734C109.837 41.3112 109.938 41.1731 110.071 41.059C110.204 40.9449 110.364 40.8568 110.553 40.7948C110.742 40.7327 110.955 40.7017 111.191 40.7017C111.277 40.7017 111.37 40.7082 111.471 40.7212C111.572 40.7342 111.673 40.7537 111.774 40.7797C111.874 40.8058 111.972 40.8393 112.065 40.8803C112.158 40.9214 112.241 40.9694 112.312 41.0245C112.384 41.0795 112.442 41.1421 112.486 41.2122C112.529 41.2822 112.551 41.3603 112.551 41.4464C112.551 41.4964 112.543 41.5425 112.527 41.5845C112.51 41.6265 112.489 41.6626 112.461 41.6926C112.434 41.7226 112.402 41.7462 112.365 41.7632C112.328 41.7802 112.29 41.7887 112.251 41.7887C112.2 41.7887 112.152 41.7757 112.11 41.7497C112.029 41.7016 111.954 41.6606 111.885 41.6266C111.816 41.5925 111.747 41.5645 111.679 41.5425C111.61 41.5204 111.54 41.5044 111.467 41.4944C111.394 41.4844 111.314 41.4794 111.227 41.4794C111.145 41.4794 111.064 41.4879 110.984 41.5049C110.905 41.5219 110.834 41.549 110.772 41.586C110.709 41.6231 110.659 41.6706 110.62 41.7286C110.582 41.7867 110.562 41.8578 110.562 41.9418V41.9418Z" fill="#FCBA04"/>
<path d="M115.352 44.5783C115.352 44.6604 115.34 44.737 115.315 44.8081C115.29 44.8791 115.256 44.9412 115.213 44.9942C115.169 45.0473 115.118 45.0888 115.061 45.1189C115.004 45.1489 114.942 45.1639 114.875 45.1639C114.808 45.1639 114.746 45.1489 114.689 45.1189C114.632 45.0888 114.582 45.0473 114.539 44.9942C114.496 44.9412 114.462 44.8791 114.438 44.8081C114.413 44.737 114.4 44.6604 114.4 44.5783V41.3863C114.4 41.3042 114.413 41.2276 114.438 41.1566C114.462 41.0855 114.496 41.0235 114.539 40.9704C114.582 40.9174 114.632 40.8758 114.689 40.8458C114.746 40.8158 114.808 40.8007 114.875 40.8007C114.942 40.8007 115.004 40.8157 115.061 40.8458C115.118 40.8758 115.169 40.9173 115.213 40.9704C115.256 41.0235 115.29 41.0855 115.315 41.1566C115.34 41.2276 115.352 41.3042 115.352 41.3863V44.5783Z" fill="#FCBA04"/>
<path d="M118.038 41.9418C118.038 42.0379 118.066 42.119 118.12 42.185C118.175 42.2511 118.247 42.3082 118.335 42.3562C118.423 42.4043 118.522 42.4463 118.634 42.4823C118.745 42.5184 118.857 42.5554 118.97 42.5934C119.151 42.6575 119.316 42.7256 119.464 42.7976C119.612 42.8697 119.738 42.9558 119.843 43.0559C119.949 43.156 120.03 43.2746 120.087 43.4117C120.145 43.5489 120.173 43.7135 120.173 43.9057C120.173 44.1159 120.138 44.3051 120.067 44.4732C119.996 44.6414 119.894 44.7845 119.76 44.9026C119.627 45.0208 119.465 45.1113 119.276 45.1744C119.087 45.2375 118.875 45.269 118.639 45.269C118.517 45.269 118.395 45.2605 118.272 45.2435C118.149 45.2265 118.03 45.2019 117.915 45.1699C117.8 45.1379 117.693 45.0988 117.592 45.0528C117.491 45.0067 117.403 44.9547 117.327 44.8966C117.252 44.8386 117.193 44.775 117.15 44.706C117.108 44.6369 117.086 44.5633 117.086 44.4852C117.086 44.4352 117.095 44.3862 117.113 44.3381C117.131 44.2901 117.154 44.2465 117.182 44.2075C117.211 44.1684 117.242 44.1369 117.277 44.1129C117.312 44.0889 117.347 44.0769 117.381 44.0769C117.412 44.0769 117.442 44.0829 117.471 44.0949C117.5 44.1069 117.53 44.1214 117.56 44.1384C117.59 44.1555 117.62 44.174 117.652 44.194C117.684 44.214 117.717 44.232 117.753 44.248C117.871 44.3101 118.004 44.3661 118.151 44.4162C118.298 44.4662 118.452 44.4913 118.613 44.4913C118.7 44.4913 118.783 44.4817 118.861 44.4627C118.938 44.4437 119.007 44.4147 119.066 44.3757C119.125 44.3366 119.172 44.2861 119.206 44.224C119.24 44.1619 119.257 44.0869 119.257 43.9988C119.257 43.9327 119.247 43.8737 119.226 43.8216C119.206 43.7696 119.178 43.724 119.142 43.685C119.106 43.646 119.064 43.6119 119.016 43.5829C118.968 43.5539 118.918 43.5284 118.864 43.5063L118.749 43.4583C118.727 43.4503 118.705 43.4418 118.685 43.4328C118.664 43.4237 118.642 43.4152 118.618 43.4072L118.485 43.3622C118.456 43.3542 118.431 43.3467 118.41 43.3397C118.39 43.3327 118.371 43.3257 118.355 43.3186C118.339 43.3116 118.323 43.3046 118.308 43.2976C118.292 43.2906 118.274 43.2831 118.254 43.2751L118.013 43.176C117.857 43.11 117.723 43.0409 117.612 42.9688C117.501 42.8967 117.41 42.8157 117.34 42.7256C117.27 42.6355 117.218 42.5329 117.185 42.4178C117.152 42.3027 117.135 42.169 117.135 42.0169C117.135 41.8167 117.17 41.6355 117.241 41.4734C117.312 41.3112 117.414 41.1731 117.547 41.059C117.679 40.9449 117.84 40.8568 118.029 40.7948C118.218 40.7327 118.431 40.7017 118.667 40.7017C118.752 40.7017 118.846 40.7082 118.947 40.7212C119.048 40.7342 119.148 40.7537 119.249 40.7797C119.35 40.8058 119.447 40.8393 119.541 40.8803C119.634 40.9214 119.716 40.9694 119.788 41.0245C119.86 41.0795 119.918 41.1421 119.962 41.2122C120.005 41.2822 120.027 41.3603 120.027 41.4464C120.027 41.4964 120.019 41.5425 120.003 41.5845C119.986 41.6265 119.965 41.6626 119.937 41.6926C119.91 41.7226 119.878 41.7462 119.841 41.7632C119.804 41.7802 119.766 41.7887 119.727 41.7887C119.675 41.7887 119.628 41.7757 119.586 41.7497C119.505 41.7016 119.43 41.6606 119.361 41.6266C119.292 41.5925 119.223 41.5645 119.154 41.5425C119.086 41.5204 119.015 41.5044 118.943 41.4944C118.87 41.4844 118.79 41.4794 118.703 41.4794C118.621 41.4794 118.54 41.4879 118.46 41.5049C118.381 41.5219 118.31 41.549 118.247 41.586C118.185 41.6231 118.134 41.6706 118.096 41.7286C118.057 41.7867 118.038 41.8578 118.038 41.9418V41.9418Z" fill="#FCBA04"/>
<path d="M121.807 41.5965C121.757 41.5965 121.71 41.586 121.666 41.565C121.621 41.5439 121.582 41.5154 121.549 41.4794C121.516 41.4433 121.489 41.4013 121.47 41.3533C121.45 41.3052 121.44 41.2542 121.44 41.2001C121.44 41.1461 121.45 41.0945 121.47 41.0455C121.489 40.9964 121.516 40.9539 121.549 40.9178C121.582 40.8818 121.621 40.8533 121.666 40.8323C121.71 40.8112 121.757 40.8007 121.807 40.8007H124.15C124.199 40.8007 124.246 40.8112 124.291 40.8323C124.335 40.8533 124.374 40.8818 124.408 40.9178C124.441 40.9539 124.468 40.9964 124.487 41.0455C124.507 41.0945 124.517 41.1461 124.517 41.2001C124.517 41.2542 124.507 41.3052 124.487 41.3533C124.468 41.4013 124.441 41.4433 124.408 41.4794C124.374 41.5154 124.335 41.5439 124.291 41.565C124.246 41.586 124.199 41.5965 124.15 41.5965H123.462V44.5783C123.462 44.6604 123.45 44.737 123.425 44.8081C123.4 44.8791 123.366 44.9412 123.322 44.9942C123.279 45.0473 123.228 45.0888 123.171 45.1189C123.114 45.1489 123.052 45.1639 122.985 45.1639C122.918 45.1639 122.856 45.1489 122.799 45.1189C122.741 45.0888 122.691 45.0473 122.649 44.9942C122.606 44.9412 122.572 44.8791 122.547 44.8081C122.522 44.737 122.51 44.6604 122.51 44.5783V41.5965H121.807Z" fill="#FCBA04"/>
<path d="M126.523 45.1639C126.435 45.1639 126.362 45.1429 126.303 45.1008C126.244 45.0588 126.197 45.0043 126.161 44.9372C126.125 44.8701 126.099 44.7946 126.084 44.7105C126.068 44.6264 126.061 44.5423 126.061 44.4582V41.5965C126.061 41.4824 126.067 41.3768 126.079 41.2797C126.091 41.1826 126.117 41.099 126.158 41.029C126.199 40.9589 126.259 40.9038 126.338 40.8638C126.417 40.8238 126.523 40.8037 126.656 40.8037H128.303C128.353 40.8037 128.4 40.8143 128.443 40.8353C128.487 40.8563 128.525 40.8843 128.557 40.9194C128.59 40.9544 128.616 40.9959 128.634 41.044C128.653 41.092 128.663 41.1431 128.663 41.1971C128.663 41.2512 128.653 41.3017 128.634 41.3488C128.616 41.3958 128.59 41.4369 128.557 41.4719C128.525 41.5069 128.487 41.5345 128.443 41.5545C128.4 41.5745 128.353 41.5845 128.303 41.5845H126.982V42.5574H128.188C128.238 42.5574 128.284 42.5674 128.328 42.5874C128.371 42.6075 128.41 42.6355 128.442 42.6715C128.475 42.7076 128.5 42.7491 128.519 42.7961C128.538 42.8432 128.547 42.8937 128.547 42.9478C128.547 43.0018 128.538 43.0524 128.519 43.0994C128.5 43.1465 128.475 43.1875 128.442 43.2225C128.41 43.2576 128.371 43.2851 128.328 43.3051C128.284 43.3252 128.238 43.3352 128.188 43.3352H126.982V44.3862H128.368C128.414 44.3862 128.457 44.3962 128.497 44.4162C128.537 44.4362 128.573 44.4642 128.604 44.5003C128.634 44.5363 128.658 44.5778 128.676 44.6249C128.693 44.6719 128.701 44.7225 128.701 44.7765C128.701 44.8306 128.693 44.8811 128.676 44.9282C128.658 44.9752 128.634 45.0163 128.604 45.0513C128.573 45.0863 128.537 45.1139 128.497 45.1339C128.457 45.1539 128.414 45.1639 128.368 45.1639H126.523Z" fill="#FCBA04"/>
<path d="M134.11 41.8518C133.957 42.2922 133.821 42.6845 133.702 43.0289C133.65 43.177 133.601 43.3212 133.553 43.4613C133.505 43.6014 133.462 43.7265 133.423 43.8366C133.385 43.9467 133.353 44.0358 133.33 44.1039L133.296 44.203C133.26 44.3051 133.222 44.4022 133.182 44.4943C133.142 44.5864 133.096 44.6669 133.045 44.736C132.993 44.8051 132.936 44.8601 132.871 44.9012C132.807 44.9422 132.733 44.9627 132.65 44.9627C132.573 44.9627 132.505 44.9472 132.447 44.9162C132.389 44.8852 132.335 44.8381 132.286 44.775C132.238 44.712 132.192 44.6329 132.149 44.5378C132.106 44.4427 132.064 44.3321 132.021 44.206L131.213 41.8638V44.7285C131.213 44.7886 131.203 44.8456 131.183 44.8997C131.163 44.9537 131.136 45.0003 131.102 45.0393C131.068 45.0783 131.028 45.1094 130.982 45.1324C130.935 45.1554 130.887 45.1669 130.835 45.1669C130.784 45.1669 130.735 45.1554 130.689 45.1324C130.643 45.1094 130.603 45.0783 130.57 45.0393C130.536 45.0003 130.51 44.9537 130.49 44.8997C130.471 44.8456 130.461 44.7886 130.461 44.7285V41.9568C130.461 41.7827 130.468 41.624 130.484 41.4809C130.499 41.3378 130.53 41.2162 130.577 41.1161C130.624 41.016 130.69 40.9384 130.775 40.8833C130.86 40.8283 130.971 40.8008 131.11 40.8008C131.209 40.8008 131.296 40.8208 131.37 40.8608C131.445 40.9008 131.514 40.9654 131.578 41.0545C131.642 41.1436 131.705 41.2592 131.766 41.4013C131.826 41.5435 131.893 41.7156 131.964 41.9178L132.65 43.8547H132.67L133.363 41.9178C133.425 41.7456 133.485 41.5905 133.544 41.4524C133.603 41.3142 133.666 41.1971 133.732 41.101C133.799 41.0049 133.872 40.9309 133.951 40.8788C134.029 40.8268 134.119 40.8008 134.22 40.8008C134.329 40.8008 134.425 40.8198 134.506 40.8578C134.587 40.8958 134.654 40.9569 134.706 41.041C134.758 41.1251 134.797 41.2337 134.823 41.3668C134.849 41.4999 134.862 41.6606 134.862 41.8488V44.7285C134.862 44.7886 134.852 44.8456 134.832 44.8997C134.812 44.9537 134.785 45.0003 134.751 45.0393C134.717 45.0783 134.677 45.1094 134.631 45.1324C134.584 45.1554 134.536 45.1669 134.484 45.1669C134.433 45.1669 134.384 45.1554 134.338 45.1324C134.292 45.1094 134.252 45.0783 134.219 45.0393C134.185 45.0003 134.159 44.9537 134.139 44.8997C134.119 44.8456 134.11 44.7886 134.11 44.7285V41.8518Z" fill="#FCBA04"/>
<path d="M138.292 41.6235L137.727 43.5544H138.866L138.304 41.6235H138.292ZM139.965 44.254C139.977 44.2901 139.989 44.3276 140.003 44.3666C140.017 44.4057 140.03 44.4452 140.042 44.4853C140.054 44.5253 140.063 44.5638 140.071 44.6009C140.079 44.6379 140.083 44.6714 140.083 44.7015C140.083 44.7755 140.071 44.8411 140.048 44.8981C140.025 44.9552 139.994 45.0032 139.954 45.0423C139.915 45.0813 139.869 45.1114 139.817 45.1324C139.765 45.1534 139.71 45.1639 139.652 45.1639C139.585 45.1639 139.528 45.1529 139.48 45.1309C139.432 45.1089 139.389 45.0738 139.351 45.0258C139.314 44.9777 139.279 44.9152 139.247 44.8381C139.216 44.761 139.182 44.6664 139.146 44.5543L139.023 44.173H137.57L137.465 44.5543C137.434 44.6684 137.403 44.7645 137.372 44.8426C137.34 44.9207 137.305 44.9832 137.266 45.0303C137.228 45.0773 137.184 45.1114 137.134 45.1324C137.085 45.1534 137.026 45.1639 136.96 45.1639C136.902 45.1639 136.846 45.1534 136.794 45.1324C136.742 45.1114 136.696 45.0813 136.657 45.0423C136.618 45.0032 136.586 44.9552 136.563 44.8981C136.54 44.8411 136.529 44.7755 136.529 44.7015C136.529 44.6714 136.532 44.6379 136.54 44.6009C136.548 44.5638 136.558 44.5253 136.57 44.4853C136.582 44.4452 136.594 44.4057 136.608 44.3666C136.622 44.3276 136.635 44.2901 136.647 44.254L137.337 42.0709C137.402 41.8668 137.464 41.6861 137.523 41.5289C137.582 41.3718 137.647 41.2392 137.718 41.1311C137.789 41.023 137.871 40.9414 137.963 40.8863C138.055 40.8313 138.167 40.8037 138.299 40.8037C138.422 40.8037 138.528 40.8253 138.615 40.8683C138.702 40.9114 138.781 40.9824 138.851 41.0815C138.921 41.1806 138.988 41.3112 139.051 41.4734C139.114 41.6355 139.185 41.8347 139.262 42.0709L139.965 44.254Z" fill="#FCBA04"/>
<path d="M142.437 41.9418C142.437 42.0379 142.465 42.119 142.52 42.185C142.574 42.2511 142.646 42.3082 142.734 42.3562C142.822 42.4043 142.922 42.4463 143.033 42.4823C143.144 42.5184 143.256 42.5554 143.369 42.5934C143.55 42.6575 143.715 42.7256 143.863 42.7976C144.011 42.8697 144.137 42.9558 144.243 43.0559C144.348 43.156 144.429 43.2746 144.486 43.4117C144.544 43.5489 144.572 43.7135 144.572 43.9057C144.572 44.1159 144.537 44.3051 144.466 44.4732C144.395 44.6414 144.293 44.7845 144.159 44.9026C144.026 45.0208 143.865 45.1113 143.676 45.1744C143.487 45.2375 143.274 45.269 143.038 45.269C142.916 45.269 142.794 45.2605 142.671 45.2435C142.548 45.2265 142.429 45.2019 142.314 45.1699C142.2 45.1379 142.092 45.0988 141.991 45.0528C141.89 45.0067 141.802 44.9547 141.727 44.8966C141.651 44.8386 141.592 44.775 141.55 44.706C141.507 44.6369 141.485 44.5633 141.485 44.4852C141.485 44.4352 141.494 44.3862 141.512 44.3381C141.53 44.2901 141.553 44.2465 141.582 44.2075C141.61 44.1684 141.641 44.1369 141.677 44.1129C141.712 44.0889 141.746 44.0769 141.78 44.0769C141.811 44.0769 141.841 44.0829 141.87 44.0949C141.899 44.1069 141.929 44.1214 141.959 44.1384C141.989 44.1555 142.02 44.174 142.051 44.194C142.083 44.214 142.117 44.232 142.153 44.248C142.271 44.3101 142.403 44.3661 142.55 44.4162C142.697 44.4662 142.851 44.4913 143.012 44.4913C143.099 44.4913 143.182 44.4817 143.26 44.4627C143.338 44.4437 143.406 44.4147 143.465 44.3757C143.524 44.3366 143.571 44.2861 143.605 44.224C143.639 44.1619 143.656 44.0869 143.656 43.9988C143.656 43.9327 143.646 43.8737 143.626 43.8216C143.605 43.7696 143.577 43.724 143.541 43.685C143.505 43.646 143.463 43.6119 143.415 43.5829C143.367 43.5539 143.317 43.5284 143.264 43.5063L143.148 43.4583C143.126 43.4503 143.105 43.4418 143.084 43.4328C143.064 43.4237 143.041 43.4152 143.017 43.4072L142.884 43.3622C142.855 43.3542 142.83 43.3467 142.81 43.3397C142.789 43.3327 142.771 43.3257 142.754 43.3186C142.738 43.3116 142.722 43.3046 142.707 43.2976C142.691 43.2906 142.673 43.2831 142.653 43.2751L142.412 43.176C142.256 43.11 142.123 43.0409 142.011 42.9688C141.9 42.8967 141.81 42.8157 141.739 42.7256C141.669 42.6355 141.618 42.5329 141.584 42.4178C141.551 42.3027 141.534 42.169 141.534 42.0169C141.534 41.8167 141.57 41.6355 141.641 41.4734C141.712 41.3112 141.813 41.1731 141.946 41.059C142.079 40.9449 142.239 40.8568 142.428 40.7948C142.617 40.7327 142.83 40.7017 143.066 40.7017C143.152 40.7017 143.245 40.7082 143.346 40.7212C143.447 40.7342 143.548 40.7537 143.649 40.7797C143.75 40.8058 143.847 40.8393 143.94 40.8803C144.033 40.9214 144.116 40.9694 144.187 41.0245C144.259 41.0795 144.317 41.1421 144.361 41.2122C144.404 41.2822 144.426 41.3603 144.426 41.4464C144.426 41.4964 144.418 41.5425 144.402 41.5845C144.385 41.6265 144.364 41.6626 144.336 41.6926C144.309 41.7226 144.277 41.7462 144.24 41.7632C144.203 41.7802 144.165 41.7887 144.126 41.7887C144.075 41.7887 144.028 41.7757 143.985 41.7497C143.904 41.7016 143.83 41.6606 143.76 41.6266C143.691 41.5925 143.622 41.5645 143.554 41.5425C143.485 41.5204 143.415 41.5044 143.342 41.4944C143.269 41.4844 143.189 41.4794 143.102 41.4794C143.02 41.4794 142.939 41.4879 142.86 41.5049C142.78 41.5219 142.709 41.549 142.647 41.586C142.584 41.6231 142.534 41.6706 142.495 41.7286C142.457 41.7867 142.437 41.8578 142.437 41.9418V41.9418Z" fill="#FCBA04"/>
<path d="M4.15172 5.63C4.34709 4.60117 4.83553 3.7438 5.61703 3.05791C6.39853 2.39108 7.29399 2.05767 8.30342 2.05767C9.47567 2.05767 10.4688 2.49588 11.2829 3.37229C12.1132 4.22965 12.5284 5.27753 12.5284 6.51594V11.1171H4.15172V5.63ZM12.5284 13.0605V19.7193C12.5284 19.9861 12.6098 20.2147 12.7726 20.4052C12.9354 20.5957 13.1308 20.691 13.3587 20.691C13.5867 20.691 13.7821 20.5957 13.9449 20.4052C14.1077 20.2147 14.1891 19.9861 14.1891 19.7193V6.51594C14.1891 4.74406 13.6111 3.23891 12.4551 2.0005C11.2992 0.743034 9.91526 0.114319 8.30342 0.114319C6.88696 0.114319 5.6333 0.609667 4.54246 1.6004C3.45162 2.59112 2.77594 3.83908 2.51544 5.34422V5.54427V11.1171H0.830342C0.602407 11.1171 0.40703 11.2124 0.244217 11.4029C0.0814042 11.5934 0 11.8221 0 12.0888C0 12.3555 0.0814042 12.5842 0.244217 12.7747C0.40703 12.9652 0.602407 13.0605 0.830342 13.0605H2.51544V19.7193C2.51544 19.986 2.58871 20.2147 2.73524 20.4052C2.89805 20.5957 3.09343 20.691 3.32137 20.691C3.5493 20.691 3.74467 20.5957 3.90749 20.4052C4.0703 20.2147 4.1517 19.986 4.1517 19.7193V13.0605L12.5284 13.0605Z" fill="#FCBA04"/>
<path d="M16.9976 4.34398L25.5697 20.1766C25.7325 20.4814 25.9685 20.6339 26.2779 20.6339L26.4977 20.6053C26.9047 20.4719 27.1082 20.1576 27.1082 19.6622V1.00028C27.1082 0.73355 27.0268 0.504902 26.864 0.314377C26.7012 0.142904 26.5058 0.057172 26.2779 0.057172C26.05 0.057172 25.8546 0.142904 25.6918 0.314377C25.529 0.504902 25.4476 0.73355 25.4476 1.00028V16.3471L16.8755 0.485853C16.6638 0.0857488 16.3545 -0.0476178 15.9475 0.0857481C15.5567 0.219114 15.3613 0.523965 15.3613 1.00028V19.6622C15.3613 19.9289 15.4427 20.1576 15.6055 20.3481C15.7684 20.5386 15.9637 20.6339 16.1917 20.6339C16.4196 20.6339 16.615 20.5386 16.7778 20.3481C16.9243 20.1576 16.9976 19.9289 16.9976 19.6622V4.34398Z" fill="#FCBA04"/>
<path d="M31.1378 2.0005H35.2407C36.413 2.0005 37.4142 2.43871 38.2446 3.31512C39.0587 4.17248 39.4657 5.22038 39.4657 6.45879V14.2322C39.4657 15.4516 39.0587 16.4995 38.2446 17.3759C37.4142 18.2523 36.413 18.6905 35.2407 18.6905L31.1378 18.7191V2.0005ZM35.2407 20.6053C36.8688 20.6053 38.2527 19.9861 39.3924 18.7476C40.5484 17.4902 41.1264 15.985 41.1264 14.2322V6.45879C41.1264 4.6869 40.5484 3.18176 39.3924 1.94335C38.2527 0.704936 36.8688 0.0857239 35.2407 0.0857239H30.3319C30.104 0.0857239 29.9086 0.171456 29.7458 0.342929C29.583 0.533454 29.5016 0.762102 29.5016 1.02883V19.6622C29.5016 19.9289 29.583 20.1575 29.7458 20.3481C29.9086 20.5386 30.104 20.6338 30.3319 20.6338L35.2407 20.6053Z" fill="#FCBA04"/>
<path d="M43.6662 9.54529V19.6622C43.6662 19.9289 43.7476 20.1575 43.9104 20.348C44.057 20.5386 44.2442 20.6338 44.4721 20.6338L53.1175 20.6053C53.3291 20.6053 53.5164 20.51 53.6792 20.3195C53.842 20.1289 53.9234 19.9003 53.9234 19.6336C53.9234 19.3669 53.842 19.1478 53.6792 18.9763C53.5164 18.7858 53.321 18.6905 53.0931 18.6905L45.3025 18.7191V9.54529H49.4054C49.6333 9.54529 49.8287 9.45954 49.9915 9.28807C50.1543 9.09755 50.2357 8.86892 50.2357 8.60218C50.2357 8.33545 50.1543 8.10682 49.9915 7.9163C49.8287 7.72577 49.6333 7.63052 49.4054 7.63052H45.3025V1.97194H53.0931C53.321 1.97194 53.5164 1.87666 53.6792 1.68614C53.842 1.49561 53.9234 1.26698 53.9234 1.00025C53.9234 0.733518 53.842 0.50489 53.6792 0.314364C53.5164 0.142892 53.321 0.0571594 53.0931 0.0571594H44.4721C44.2442 0.0571594 44.0488 0.142892 43.886 0.314364C43.7395 0.50489 43.6662 0.733518 43.6662 1.00025V7.63052H42.8603C42.6324 7.63052 42.437 7.72577 42.2742 7.9163C42.1114 8.10682 42.03 8.33547 42.03 8.6022C42.03 8.86894 42.1114 9.09756 42.2742 9.28809C42.437 9.45956 42.6324 9.54529 42.8603 9.54529H43.6662Z" fill="#FCBA04"/>
<path d="M59.4672 11.1171H58.124V2.00049H61.3721C62.5606 2.00049 63.5782 2.44824 64.4248 3.34371C65.2714 4.22012 65.6947 5.28706 65.6947 6.54453C65.6947 7.78294 65.2714 8.84988 64.4248 9.74535C63.5782 10.6408 62.5606 11.0885 61.3721 11.0885L59.4672 11.1171ZM65.5971 1.97192C64.4248 0.714451 63.0246 0.0857356 61.3965 0.0857356L57.2936 0.0571594L57.1471 0.0857356L57.0983 0.114312L56.9761 0.142888C56.8785 0.200047 56.7889 0.266714 56.7075 0.342921C56.6424 0.43818 56.5854 0.542978 56.5365 0.657297V0.685873L56.4877 0.828774V11.1171H55.6818C55.4538 11.1171 55.2585 11.2124 55.0957 11.4029C54.9328 11.5744 54.8514 11.7935 54.8514 12.0602C54.8514 12.3269 54.9328 12.5556 55.0957 12.7461C55.2585 12.9366 55.4538 13.0319 55.6818 13.0319H56.4877V19.6622C56.4877 19.9289 56.561 20.1575 56.7075 20.348C56.8703 20.5386 57.0657 20.6338 57.2936 20.6338C57.5216 20.6338 57.7169 20.5386 57.8797 20.348C58.0426 20.1575 58.124 19.9289 58.124 19.6622V13.0319H59.4916L61.2011 13.0033L65.8657 20.2623C66.0285 20.51 66.2483 20.6338 66.5251 20.6338C66.7042 20.6338 66.867 20.5671 67.0135 20.4338C67.1926 20.2814 67.2984 20.0718 67.331 19.805C67.3635 19.5383 67.3066 19.3002 67.16 19.0906L63.0816 12.7175C64.3352 12.3174 65.3528 11.5553 66.1343 10.4312C66.9321 9.28809 67.331 7.9925 67.331 6.54451C67.331 5.61093 67.1763 4.75359 66.867 3.97244C66.5739 3.24845 66.1506 2.58159 65.597 1.97192H65.5971Z" fill="#FCBA04"/>
<path d="M78.0522 19.0049C79.2081 17.7664 79.7861 16.2708 79.7861 14.518C79.7861 13.3558 79.5175 12.2889 78.9802 11.3172L78.9069 11.2028C78.5162 10.536 77.8975 10.0121 77.0509 9.63103C76.709 9.47861 76.3101 9.33571 75.8542 9.20234C75.5774 9.12613 75.1541 9.02136 74.5843 8.88799L73.8028 8.68793C73.5097 8.63077 73.2574 8.56409 73.0457 8.48788C72.5084 8.31641 72.1095 8.11636 71.849 7.88772C71.1001 7.22089 70.7256 6.37305 70.7256 5.34421C70.7256 4.41064 71.0431 3.61996 71.6781 2.97218C72.2968 2.30534 73.0457 1.97192 73.9249 1.97192C74.8204 1.97192 75.5774 2.30534 76.1961 2.97218C76.8311 3.61996 77.1486 4.41064 77.1486 5.34421C77.1486 5.61095 77.23 5.83957 77.3928 6.0301C77.5556 6.22063 77.751 6.3159 77.9789 6.3159C78.2068 6.3159 78.4022 6.22063 78.565 6.0301C78.7279 5.83957 78.8093 5.61095 78.8093 5.34421C78.8093 3.87717 78.329 2.62924 77.3684 1.60041C76.4241 0.571573 75.2762 0.0571594 73.9249 0.0571594C72.5898 0.0571594 71.4502 0.571573 70.5058 1.60041C69.5452 2.62924 69.0649 3.87717 69.0649 5.34421C69.0649 7.02083 69.6674 8.39261 70.8722 9.45955H70.8966C71.2711 9.80249 71.7839 10.0788 72.4352 10.2883C72.6957 10.3836 72.9969 10.4789 73.3388 10.5741L74.2668 10.7742L75.2925 11.0314C75.667 11.1266 75.9926 11.2314 76.2694 11.3457C76.9206 11.5934 77.3521 11.9173 77.5637 12.3174C77.9382 13.0033 78.1254 13.7368 78.1254 14.518C78.1254 15.7374 77.7184 16.7757 76.9044 17.6331C76.074 18.4904 75.0809 18.9191 73.9249 18.9191C72.7689 18.9191 71.7839 18.4904 70.9698 17.6331C70.1558 16.7757 69.7487 15.7374 69.7487 14.518C69.7487 14.2513 69.6673 14.0226 69.5045 13.8321C69.3417 13.6416 69.1463 13.5463 68.9184 13.5463C68.6905 13.5463 68.4951 13.6416 68.3323 13.8321C68.1695 14.0226 68.0881 14.2513 68.0881 14.518C68.0881 16.2708 68.6579 17.7664 69.7976 19.0049C70.9373 20.2433 72.313 20.8625 73.9249 20.8625C74.7389 20.8625 75.496 20.7005 76.1961 20.3766C76.8799 20.0718 77.4986 19.6145 78.0522 19.0049V19.0049Z" fill="#FCBA04"/>
<path d="M83.9867 6.40164C83.9867 5.16323 84.4018 4.10581 85.2322 3.2294C86.0625 2.37203 87.0638 1.94335 88.2361 1.94335C89.4083 1.94335 90.4096 2.37203 91.2399 3.2294C92.0703 4.10581 92.4855 5.16323 92.4855 6.40164V14.2322C92.4855 15.4706 92.0703 16.5185 91.2399 17.3759C90.4096 18.2523 89.4083 18.6905 88.2361 18.6905C87.0638 18.6905 86.0625 18.2523 85.2322 17.3759C84.4018 16.5185 83.9867 15.4706 83.9867 14.2322V6.40164ZM88.2361 20.6338C89.8642 20.6338 91.2481 20.0051 92.3878 18.7477C93.5437 17.5093 94.1217 16.0041 94.1217 14.2322V6.40164C94.1217 4.62976 93.5437 3.12461 92.3878 1.8862C91.2481 0.628735 89.8642 0 88.2361 0C86.6079 0 85.2159 0.628735 84.0599 1.8862C82.904 3.12461 82.326 4.62976 82.326 6.40164V14.2322C82.326 16.0041 82.904 17.5093 84.0599 18.7477C85.2159 20.0051 86.6079 20.6338 88.2361 20.6338Z" fill="#FCBA04"/>
<path d="M96.7593 4.34398L105.331 20.1766C105.494 20.4814 105.73 20.6339 106.04 20.6339L106.259 20.6053C106.666 20.4719 106.87 20.1576 106.87 19.6622V1.00028C106.87 0.73355 106.789 0.504902 106.626 0.314377C106.463 0.142904 106.268 0.057172 106.04 0.057172C105.812 0.057172 105.616 0.142904 105.453 0.314377C105.291 0.504902 105.209 0.73355 105.209 1.00028V16.3471L96.6372 0.485853C96.4255 0.0857488 96.1162 -0.0476178 95.7092 0.0857481C95.3184 0.219114 95.123 0.523965 95.123 1.00028V19.6622C95.123 19.9289 95.2044 20.1576 95.3673 20.3481C95.5301 20.5386 95.7255 20.6339 95.9534 20.6339C96.1813 20.6339 96.3767 20.5386 96.5395 20.3481C96.686 20.1576 96.7593 19.9289 96.7593 19.6622V4.34398Z" fill="#FCBA04"/>
<path d="M119.594 11.1171H118.25V2.00049H121.499C122.687 2.00049 123.705 2.44824 124.551 3.34371C125.398 4.22012 125.821 5.28706 125.821 6.54453C125.821 7.78294 125.398 8.84988 124.551 9.74535C123.705 10.6408 122.687 11.0885 121.499 11.0885L119.594 11.1171ZM125.724 1.97192C124.551 0.714451 123.151 0.0857356 121.523 0.0857356L117.42 0.0571594L117.274 0.0857356L117.225 0.114312L117.103 0.142888C117.005 0.200047 116.915 0.266714 116.834 0.342921C116.769 0.43818 116.712 0.542978 116.663 0.657297V0.685873L116.614 0.828774V11.1171H115.808C115.58 11.1171 115.385 11.2124 115.222 11.4029C115.059 11.5744 114.978 11.7935 114.978 12.0602C114.978 12.3269 115.059 12.5556 115.222 12.7461C115.385 12.9366 115.58 13.0319 115.808 13.0319H116.614V19.6622C116.614 19.9289 116.687 20.1575 116.834 20.348C116.997 20.5386 117.192 20.6338 117.42 20.6338C117.648 20.6338 117.843 20.5386 118.006 20.348C118.169 20.1575 118.25 19.9289 118.25 19.6622V13.0319H119.618L121.328 13.0033L125.992 20.2623C126.155 20.51 126.375 20.6338 126.652 20.6338C126.831 20.6338 126.994 20.5671 127.14 20.4338C127.319 20.2814 127.425 20.0718 127.458 19.805C127.49 19.5383 127.433 19.3002 127.287 19.0906L123.208 12.7175C124.462 12.3174 125.479 11.5553 126.261 10.4312C127.059 9.28809 127.458 7.9925 127.458 6.54451C127.458 5.61093 127.303 4.75359 126.994 3.97244C126.7 3.24845 126.277 2.58159 125.724 1.97192V1.97192Z" fill="#FCBA04"/>
<path d="M132.366 5.63C132.562 4.60117 133.05 3.7438 133.832 3.05791C134.613 2.39108 135.509 2.05767 136.518 2.05767C137.69 2.05767 138.683 2.49588 139.497 3.37229C140.328 4.22965 140.743 5.27753 140.743 6.51594V11.1171H132.366V5.63ZM140.743 13.0605V19.7193C140.743 19.9861 140.824 20.2147 140.987 20.4052C141.15 20.5957 141.345 20.691 141.573 20.691C141.801 20.691 141.997 20.5957 142.159 20.4052C142.322 20.2147 142.404 19.9861 142.404 19.7193V6.51594C142.404 4.74406 141.826 3.23891 140.67 2.0005C139.514 0.743034 138.13 0.114319 136.518 0.114319C135.102 0.114319 133.848 0.609667 132.757 1.6004C131.666 2.59112 130.991 3.83908 130.73 5.34422V5.54427V11.1171H129.045C128.817 11.1171 128.622 11.2124 128.459 11.4029C128.296 11.5934 128.215 11.8221 128.215 12.0888C128.215 12.3555 128.296 12.5842 128.459 12.7747C128.622 12.9652 128.817 13.0605 129.045 13.0605H130.73V19.7193C130.73 19.986 130.803 20.2147 130.95 20.4052C131.113 20.5957 131.308 20.691 131.536 20.691C131.764 20.691 131.959 20.5957 132.122 20.4052C132.285 20.2147 132.366 19.986 132.366 19.7193V13.0605L140.743 13.0605Z" fill="#FCBA04"/>
<path d="M144.333 19.6622C144.333 19.9289 144.414 20.1575 144.577 20.3481C144.74 20.5386 144.935 20.6339 145.163 20.6339C145.391 20.6339 145.587 20.5386 145.749 20.3481C145.896 20.1575 145.969 19.9289 145.969 19.6622V4.14392L150.878 12.6032L150.902 12.6318L151 12.7461L151.073 12.8033L151.098 12.8604H151.147L151.293 12.9462L151.342 12.9747L151.562 13.0033H151.586L151.782 12.9747L151.855 12.9462L152.001 12.8604H152.026L152.075 12.8033L152.124 12.7461L152.221 12.6318L152.246 12.6032L157.228 4.11534V19.6622C157.228 19.9289 157.309 20.1575 157.472 20.3481C157.618 20.5386 157.806 20.6339 158.034 20.6339C158.262 20.6339 158.457 20.5386 158.62 20.3481C158.783 20.1575 158.864 19.9289 158.864 19.6622V1.00027V0.885945L158.84 0.828793C158.774 0.314376 158.506 0.0571594 158.034 0.0571594C157.724 0.0571594 157.488 0.209578 157.325 0.514417L151.562 10.3455L145.872 0.514417C145.709 0.209578 145.473 0.0571594 145.163 0.0571594C144.707 0.0571594 144.439 0.314376 144.357 0.828793V0.857369L144.333 1.00027V19.6622Z" fill="#FCBA04"/>
<path d="M162.503 6.40164C162.503 5.16323 162.918 4.10581 163.748 3.2294C164.579 2.37203 165.58 1.94335 166.752 1.94335C167.925 1.94335 168.926 2.37203 169.756 3.2294C170.587 4.10581 171.002 5.16323 171.002 6.40164V14.2322C171.002 15.4706 170.587 16.5185 169.756 17.3759C168.926 18.2523 167.925 18.6905 166.752 18.6905C165.58 18.6905 164.579 18.2523 163.748 17.3759C162.918 16.5185 162.503 15.4706 162.503 14.2322V6.40164ZM166.752 20.6338C168.38 20.6338 169.764 20.0051 170.904 18.7477C172.06 17.5093 172.638 16.0041 172.638 14.2322V6.40164C172.638 4.62976 172.06 3.12461 170.904 1.8862C169.764 0.628735 168.38 0 166.752 0C165.124 0 163.732 0.628735 162.576 1.8862C161.42 3.12461 160.842 4.62976 160.842 6.40164V14.2322C160.842 16.0041 161.42 17.5093 162.576 18.7477C163.732 20.0051 165.124 20.6338 166.752 20.6338Z" fill="#FCBA04"/>
<path d="M183.603 19.0049C184.759 17.7664 185.337 16.2708 185.337 14.518C185.337 13.3558 185.069 12.2889 184.531 11.3172L184.458 11.2028C184.067 10.536 183.449 10.0121 182.602 9.63103C182.26 9.47861 181.861 9.33571 181.405 9.20234C181.129 9.12613 180.705 9.02136 180.135 8.88799L179.354 8.68793C179.061 8.63077 178.809 8.56409 178.597 8.48788C178.06 8.31641 177.661 8.11636 177.4 7.88772C176.651 7.22089 176.277 6.37305 176.277 5.34421C176.277 4.41064 176.594 3.61996 177.229 2.97218C177.848 2.30534 178.597 1.97192 179.476 1.97192C180.372 1.97192 181.129 2.30534 181.747 2.97218C182.382 3.61996 182.7 4.41064 182.7 5.34421C182.7 5.61095 182.781 5.83957 182.944 6.0301C183.107 6.22063 183.302 6.3159 183.53 6.3159C183.758 6.3159 183.953 6.22063 184.116 6.0301C184.279 5.83957 184.36 5.61095 184.36 5.34421C184.36 3.87717 183.88 2.62924 182.92 1.60041C181.975 0.571573 180.827 0.0571594 179.476 0.0571594C178.141 0.0571594 177.001 0.571573 176.057 1.60041C175.096 2.62924 174.616 3.87717 174.616 5.34421C174.616 7.02083 175.219 8.39261 176.423 9.45955H176.448C176.822 9.80249 177.335 10.0788 177.986 10.2883C178.247 10.3836 178.548 10.4789 178.89 10.5741L179.818 10.7742L180.844 11.0314C181.218 11.1266 181.544 11.2314 181.821 11.3457C182.472 11.5934 182.903 11.9173 183.115 12.3174C183.489 13.0033 183.677 13.7368 183.677 14.518C183.677 15.7374 183.27 16.7757 182.456 17.6331C181.625 18.4904 180.632 18.9191 179.476 18.9191C178.32 18.9191 177.335 18.4904 176.521 17.6331C175.707 16.7757 175.3 15.7374 175.3 14.518C175.3 14.2513 175.219 14.0226 175.056 13.8321C174.893 13.6416 174.698 13.5463 174.47 13.5463C174.242 13.5463 174.046 13.6416 173.883 13.8321C173.721 14.0226 173.639 14.2513 173.639 14.518C173.639 16.2708 174.209 17.7664 175.349 19.0049C176.488 20.2433 177.864 20.8625 179.476 20.8625C180.29 20.8625 181.047 20.7005 181.747 20.3766C182.431 20.0718 183.05 19.6145 183.603 19.0049V19.0049Z" fill="#FCBA04"/>
<path d="M7.16443 26.6356H10.437C11.6092 26.6356 12.6186 27.0834 13.4653 27.9788C14.3119 28.8553 14.7352 29.9222 14.7352 31.1797C14.7352 32.4181 14.3119 33.485 13.4653 34.3805C12.6186 35.2759 11.6011 35.7237 10.4125 35.7237L8.50763 35.7523H7.16444L7.16443 26.6356ZM5.52817 37.667V44.2973C5.52817 44.564 5.60144 44.7927 5.74797 44.9832C5.91078 45.1737 6.10616 45.269 6.33409 45.269C6.56203 45.269 6.7574 45.1737 6.92022 44.9832C7.08303 44.7927 7.16443 44.564 7.16443 44.2973V37.667H8.53206L10.437 37.6385C12.0651 37.6385 13.4653 37.0097 14.6375 35.7523C15.7935 34.4757 16.3715 32.9515 16.3715 31.1797C16.3715 29.3887 15.7935 27.8645 14.6375 26.6071C13.4653 25.3496 12.0651 24.7209 10.437 24.7209L6.33409 24.6923L6.18756 24.7209L6.13871 24.7494L6.0166 24.778C5.91892 24.8352 5.82937 24.9019 5.74796 24.9781C5.68284 25.0733 5.62585 25.1781 5.57701 25.2924V25.321L5.52817 25.4639V25.5496V25.664V35.7523H4.72224C4.49431 35.7523 4.29894 35.8475 4.13612 36.038C3.97331 36.2095 3.89191 36.4286 3.89191 36.6953C3.89191 36.9621 3.97331 37.1907 4.13612 37.3812C4.29894 37.5718 4.49431 37.667 4.72224 37.667H5.52817Z" fill="#FCBA04"/>
<path d="M19.3265 30.2652C19.5219 29.2363 20.0103 28.379 20.7918 27.6931C21.5733 27.0262 22.4688 26.6928 23.4782 26.6928C24.6505 26.6928 25.6436 27.131 26.4577 28.0074C27.288 28.8648 27.7032 29.9127 27.7032 31.1511V35.7523H19.3265V30.2652ZM27.7032 37.6956V44.3545C27.7032 44.6212 27.7846 44.8498 27.9474 45.0403C28.1102 45.2309 28.3056 45.3261 28.5335 45.3261C28.7615 45.3261 28.9569 45.2309 29.1197 45.0403C29.2825 44.8498 29.3639 44.6212 29.3639 44.3545V31.1511C29.3639 29.3792 28.7859 27.8741 27.6299 26.6357C26.474 25.3782 25.0901 24.7495 23.4782 24.7495C22.0618 24.7495 20.8081 25.2448 19.7173 26.2355C18.6264 27.2263 17.9507 28.4742 17.6902 29.9794V30.1794V35.7523H16.0051C15.7772 35.7523 15.5818 35.8475 15.419 36.038C15.2562 36.2286 15.1748 36.4572 15.1748 36.7239C15.1748 36.9907 15.2562 37.2193 15.419 37.4098C15.5818 37.6003 15.7772 37.6956 16.0051 37.6956H17.6902V44.3545C17.6902 44.6212 17.7635 44.8498 17.9101 45.0403C18.0729 45.2309 18.2682 45.3261 18.4962 45.3261C18.7241 45.3261 18.9195 45.2309 19.0823 45.0403C19.2451 44.8498 19.3265 44.6212 19.3265 44.3545V37.6956H27.7032Z" fill="#FCBA04"/>
<path d="M32.6853 26.6357H36.7881C37.9604 26.6357 38.9617 27.0739 39.792 27.9503C40.6061 28.8076 41.0131 29.8555 41.0131 31.094V38.8674C41.0131 40.0867 40.6061 41.1346 39.792 42.011C38.9617 42.8874 37.9604 43.3256 36.7881 43.3256L32.6853 43.3542V26.6357ZM36.7881 45.2404C38.4163 45.2404 39.8002 44.6212 40.9398 43.3828C42.0958 42.1253 42.6738 40.6202 42.6738 38.8674V31.094C42.6738 29.3221 42.0958 27.8169 40.9398 26.5785C39.8002 25.3401 38.4163 24.7209 36.7881 24.7209H31.8794C31.6514 24.7209 31.456 24.8066 31.2932 24.9781C31.1304 25.1686 31.049 25.3972 31.049 25.664V44.2973C31.049 44.564 31.1304 44.7927 31.2932 44.9832C31.456 45.1737 31.6514 45.269 31.8794 45.269L36.7881 45.2404Z" fill="#FCBA04"/>
<path d="M46.3615 31.0368C46.3615 29.7984 46.7767 28.741 47.607 27.8645C48.4373 27.0072 49.4386 26.5785 50.6109 26.5785C51.7831 26.5785 52.7844 27.0072 53.6148 27.8645C54.4451 28.741 54.8603 29.7984 54.8603 31.0368V38.8674C54.8603 40.1058 54.4451 41.1537 53.6148 42.011C52.7844 42.8874 51.7831 43.3256 50.6109 43.3256C49.4386 43.3256 48.4373 42.8874 47.607 42.011C46.7767 41.1537 46.3615 40.1058 46.3615 38.8674V31.0368ZM50.6109 45.269C52.239 45.269 53.6229 44.6403 54.7626 43.3828C55.9186 42.1444 56.4965 40.6392 56.4965 38.8674V31.0368C56.4965 29.2649 55.9186 27.7597 54.7626 26.5213C53.6229 25.2639 52.239 24.6351 50.6109 24.6351C48.9828 24.6351 47.5907 25.2639 46.4348 26.5213C45.2788 27.7597 44.7008 29.2649 44.7008 31.0368V38.8674C44.7008 40.6392 45.2788 42.1444 46.4348 43.3828C47.5907 44.6403 48.9828 45.269 50.6109 45.269Z" fill="#FCBA04"/>
<path d="M64.0673 44.6688C64.1813 44.9927 64.3848 45.1833 64.6778 45.2404L64.7511 45.269H64.8244H64.8488H64.9221L64.9953 45.2404C65.3047 45.1833 65.5163 44.9927 65.6303 44.6688L72.0044 26.0355C72.0858 25.7878 72.0858 25.5497 72.0044 25.321C71.9067 25.0734 71.752 24.9019 71.5404 24.8066C71.3287 24.6923 71.1171 24.6923 70.9054 24.8066C70.71 24.9019 70.5635 25.0734 70.4658 25.321L64.8488 41.7824L59.2074 25.321C59.126 25.0734 58.9794 24.9019 58.7678 24.8066C58.5561 24.6923 58.3445 24.6923 58.1328 24.8066C57.9211 24.9019 57.7746 25.0734 57.6932 25.321C57.5955 25.5497 57.5955 25.7878 57.6932 26.0355L64.0673 44.6688Z" fill="#FCBA04"/>
<path d="M74.5443 30.2652C74.7397 29.2363 75.2281 28.379 76.0096 27.6931C76.7911 27.0262 77.6866 26.6928 78.696 26.6928C79.8683 26.6928 80.8614 27.131 81.6755 28.0074C82.5058 28.8648 82.921 29.9127 82.921 31.1511V35.7523H74.5443V30.2652ZM82.921 37.6956V44.3545C82.921 44.6212 83.0024 44.8498 83.1652 45.0403C83.328 45.2309 83.5234 45.3261 83.7513 45.3261C83.9793 45.3261 84.1746 45.2309 84.3375 45.0403C84.5003 44.8498 84.5817 44.6212 84.5817 44.3545V31.1511C84.5817 29.3792 84.0037 27.8741 82.8477 26.6357C81.6917 25.3782 80.3078 24.7495 78.696 24.7495C77.2795 24.7495 76.0259 25.2448 74.935 26.2355C73.8442 27.2263 73.1685 28.4742 72.908 29.9794V30.1794V35.7523H71.2229C70.995 35.7523 70.7996 35.8475 70.6368 36.038C70.474 36.2286 70.3926 36.4572 70.3926 36.7239C70.3926 36.9907 70.474 37.2193 70.6368 37.4098C70.7996 37.6003 70.995 37.6956 71.2229 37.6956H72.908V44.3545C72.908 44.6212 72.9813 44.8498 73.1278 45.0403C73.2906 45.2309 73.486 45.3261 73.7139 45.3261C73.9419 45.3261 74.1373 45.2309 74.3001 45.0403C74.4629 44.8498 74.5443 44.6212 74.5443 44.3545V37.6956H82.921Z" fill="#FCBA04"/>
<path d="M87.3902 28.9791L95.9622 44.8117C96.125 45.1166 96.3611 45.269 96.6705 45.269L96.8903 45.2404C97.2973 45.1071 97.5008 44.7927 97.5008 44.2973V25.6354C97.5008 25.3687 97.4194 25.14 97.2566 24.9495C97.0938 24.778 96.8984 24.6923 96.6705 24.6923C96.4425 24.6923 96.2471 24.778 96.0843 24.9495C95.9215 25.14 95.8401 25.3687 95.8401 25.6354V40.9822L87.2681 25.121C87.0564 24.7209 86.7471 24.5875 86.34 24.7209C85.9493 24.8542 85.7539 25.1591 85.7539 25.6354V44.2973C85.7539 44.564 85.8353 44.7927 85.9981 44.9832C86.1609 45.1737 86.3563 45.269 86.5842 45.269C86.8122 45.269 87.0075 45.1737 87.1704 44.9832C87.3169 44.7927 87.3902 44.564 87.3902 44.2973V28.9791Z" fill="#FCBA04"/>
<path d="M101.653 45.269C101.88 45.269 102.076 45.1737 102.239 44.9832C102.401 44.7927 102.483 44.564 102.483 44.2973V25.5783C102.483 25.3115 102.401 25.0829 102.239 24.8924C102.076 24.7018 101.88 24.6066 101.653 24.6066C101.425 24.6066 101.229 24.7018 101.066 24.8924C100.904 25.0829 100.822 25.3115 100.822 25.5783V44.2973C100.822 44.564 100.904 44.7927 101.066 44.9832C101.229 45.1737 101.425 45.269 101.653 45.269Z" fill="#FCBA04"/>
</svg>
